<?xml version="1.0" encoding="UTF-8"?>
<!DOCTYPE svg PUBLIC "-//W3C//DTD SVG 1.1//EN" "http://www.w3.org/Graphics/SVG/1.1/DTD/svg11.dtd">
<svg xmlns="http://www.w3.org/2000/svg" version="1.1" width="434px" height="422px" style="shape-rendering:geometricPrecision; text-rendering:geometricPrecision; image-rendering:optimizeQuality; fill-rule:evenodd; clip-rule:evenodd" xmlns:xlink="http://www.w3.org/1999/xlink">
<g><path style="opacity:0.027" fill="#6a080f" d="M 93.5,20.5 C 91.1804,19.0414 89.1804,17.2081 87.5,15C 88.1667,14.3333 88.8333,13.6667 89.5,13C 87.4105,11.8292 85.4105,10.4959 83.5,9C 62.6626,8.17072 41.9959,8.33738 21.5,9.5C 20.448,9.35055 19.448,9.51722 18.5,10C 17.5,11.6667 16.5,13.3333 15.5,15C 14.552,15.4828 13.552,15.6495 12.5,15.5C 13.2421,12.1908 14.9088,9.35749 17.5,7C 40.1667,6.33333 62.8333,6.33333 85.5,7C 89.4004,10.7329 92.067,15.2329 93.5,20.5 Z"/></g>
<g><path style="opacity:1" fill="#980102" d="M 21.5,9.5 C 31.9833,10.6501 42.4833,10.6501 53,9.5C 54.9964,9.99627 56.6631,10.9963 58,12.5C 58.6259,10.0087 59.4593,10.0087 60.5,12.5C 66.8024,11.5382 72.9691,11.2048 79,11.5C 81.6432,12.9763 83.8099,14.9763 85.5,17.5C 86.4255,18.6405 87.2588,18.6405 88,17.5C 86.8283,22.4482 87.6616,27.1149 90.5,31.5C 90.0133,32.4461 89.6799,33.4461 89.5,34.5C 90.4056,36.7475 91.7389,38.7475 93.5,40.5C 91.3515,41.0553 89.3515,42.5553 87.5,45C 86.2068,45.49 84.8734,45.6567 83.5,45.5C 83.7399,48.5788 83.4066,51.5788 82.5,54.5C 78.428,59.5756 73.7613,63.9089 68.5,67.5C 69.9538,69.2633 69.6204,70.5967 67.5,71.5C 63.7515,66.1057 61.2515,60.1057 60,53.5C 58.7003,50.5677 56.7003,48.2344 54,46.5C 52.5177,48.7811 50.851,48.7811 49,46.5C 48.3333,47.1667 47.6667,47.8333 47,48.5C 41.4009,47.9014 36.0676,47.9014 31,48.5C 29.6976,47.9152 28.531,47.2485 27.5,46.5C 34.3872,45.3842 41.7205,44.3842 49.5,43.5C 51.9259,43.4035 54.0926,44.0702 56,45.5C 60.5253,41.008 63.192,35.6747 64,29.5C 67.393,26.1345 69.893,22.3011 71.5,18C 69.4767,15.3758 66.9767,14.5425 64,15.5C 60.2401,14.8668 56.5734,13.8668 53,12.5C 43.2475,12.6857 32.0809,13.0191 19.5,13.5C 17.726,15.8686 16.3927,18.202 15.5,20.5C 15.8627,21.1835 16.1961,21.8501 16.5,22.5C 15.5041,22.5858 14.6708,22.2524 14,21.5C 13.6824,23.0609 12.8491,24.2276 11.5,25C 12.7119,26.1068 12.3786,26.6068 10.5,26.5C 10.0618,26.5654 9.72845,26.3988 9.5,26C 10.6961,24.636 11.6961,23.136 12.5,21.5C 12.4573,20.5836 12.1239,19.9169 11.5,19.5C 11.8333,18.1667 12.1667,16.8333 12.5,15.5C 13.552,15.6495 14.552,15.4828 15.5,15C 16.5,13.3333 17.5,11.6667 18.5,10C 19.448,9.51722 20.448,9.35055 21.5,9.5 Z"/></g>
<g><path style="opacity:1" fill="#ac0000" d="M 19.5,13.5 C 25.8948,13.8174 31.8948,13.8174 37.5,13.5C 39.1667,14.1667 40.8333,14.8333 42.5,15.5C 45.053,15.2939 47.553,14.9606 50,14.5C 50.1667,15 50.3333,15.5 50.5,16C 46.3765,19.7663 43.2098,24.2663 41,29.5C 41.7383,34.717 39.905,38.5503 35.5,41C 27.9242,42.8218 20.2576,44.3218 12.5,45.5C 10.9334,45.523 9.6001,45.023 8.5,44C 9.83333,42.6667 9.83333,41.3333 8.5,40C 12.1448,35.1759 14.8114,29.3426 16.5,22.5C 16.1961,21.8501 15.8627,21.1835 15.5,20.5C 16.3927,18.202 17.726,15.8686 19.5,13.5 Z"/></g>
<g><path style="opacity:1" fill="#a20102" d="M 19.5,13.5 C 32.0809,13.0191 43.2475,12.6857 53,12.5C 56.5734,13.8668 60.2401,14.8668 64,15.5C 66.9767,14.5425 69.4767,15.3758 71.5,18C 69.893,22.3011 67.393,26.1345 64,29.5C 63.192,35.6747 60.5253,41.008 56,45.5C 54.0926,44.0702 51.9259,43.4035 49.5,43.5C 41.7205,44.3842 34.3872,45.3842 27.5,46.5C 21.2066,47.0052 14.7066,47.6719 8,48.5C 7.69661,46.1116 6.86328,43.9449 5.5,42C 6.16667,40.6667 6.83333,39.3333 7.5,38C 6.90558,37.5357 6.23891,37.369 5.5,37.5C 5.5,37.1667 5.5,36.8333 5.5,36.5C 7.31093,36.428 8.64426,35.5947 9.5,34C 10.8734,31.4729 11.2068,28.9729 10.5,26.5C 12.3786,26.6068 12.7119,26.1068 11.5,25C 12.8491,24.2276 13.6824,23.0609 14,21.5C 14.6708,22.2524 15.5041,22.5858 16.5,22.5C 14.8114,29.3426 12.1448,35.1759 8.5,40C 9.83333,41.3333 9.83333,42.6667 8.5,44C 9.6001,45.023 10.9334,45.523 12.5,45.5C 20.2576,44.3218 27.9242,42.8218 35.5,41C 39.905,38.5503 41.7383,34.717 41,29.5C 43.2098,24.2663 46.3765,19.7663 50.5,16C 50.3333,15.5 50.1667,15 50,14.5C 47.553,14.9606 45.053,15.2939 42.5,15.5C 40.8333,14.8333 39.1667,14.1667 37.5,13.5C 31.8948,13.8174 25.8948,13.8174 19.5,13.5 Z"/></g>
<g><path style="opacity:0.192" fill="#6e1111" d="M 11.5,19.5 C 12.1239,19.9169 12.4573,20.5836 12.5,21.5C 11.6961,23.136 10.6961,24.636 9.5,26C 9.72845,26.3988 10.0618,26.5654 10.5,26.5C 11.2068,28.9729 10.8734,31.4729 9.5,34C 8.64426,35.5947 7.31093,36.428 5.5,36.5C 7.25343,30.7042 9.25343,25.0376 11.5,19.5 Z"/></g>
<g><path style="opacity:0.141" fill="#571011" d="M 93.5,21.5 C 96.2239,26.6749 98.5572,32.0082 100.5,37.5C 98.9256,37.0629 97.7589,36.0629 97,34.5C 95.5703,30.474 93.737,26.6407 91.5,23C 92.0442,22.2828 92.7109,21.7828 93.5,21.5 Z"/></g>
<g><path style="opacity:1" fill="#8a0304" d="M 93.5,20.5 C 93.5,20.8333 93.5,21.1667 93.5,21.5C 92.7109,21.7828 92.0442,22.2828 91.5,23C 93.737,26.6407 95.5703,30.474 97,34.5C 97.7589,36.0629 98.9256,37.0629 100.5,37.5C 100.5,38.1667 100.5,38.8333 100.5,39.5C 100.739,41.4672 100.406,43.3005 99.5,45C 100.833,46 102.167,47 103.5,48C 102.289,48.8928 102.289,49.7261 103.5,50.5C 104.527,51.7914 105.527,51.7914 106.5,50.5C 106.5,50.8333 106.5,51.1667 106.5,51.5C 106.567,52.9587 106.234,54.2921 105.5,55.5C 106.405,56.7024 106.405,58.0357 105.5,59.5C 101.026,58.7917 100.526,60.125 104,63.5C 104.179,67.5348 102.345,70.5348 98.5,72.5C 97.2889,73.7202 97.2889,74.8869 98.5,76C 96.5199,78.5029 94.1865,80.3362 91.5,81.5C 91.6621,83.5273 91.4955,85.5273 91,87.5C 83.9521,89.0837 82.7854,92.5837 87.5,98C 84.1961,99.0419 82.0295,97.8753 81,94.5C 80.0138,95.1712 78.8471,95.1712 77.5,94.5C 76.7784,94.9175 76.2784,95.5842 76,96.5C 75.1667,95 74,93.8333 72.5,93C 73.0606,91.4345 72.3939,90.1011 70.5,89C 71.5536,87.6124 71.7203,86.1124 71,84.5C 69.9887,85.3366 68.8221,85.67 67.5,85.5C 68.0532,82.0435 68.2198,78.3769 68,74.5C 66.1667,73 64.3333,71.5 62.5,70C 63.2797,68.927 63.113,67.7604 62,66.5C 61.5831,67.756 60.7498,68.4226 59.5,68.5C 59.5,68.1667 59.5,67.8333 59.5,67.5C 62.1506,65.5386 61.9839,63.8719 59,62.5C 57.5594,59.9533 57.0594,57.4533 57.5,55C 56.4582,53.082 55.2915,51.2487 54,49.5C 52.3296,49.3437 50.663,50.0104 49,51.5C 34.9508,51.0162 20.7842,50.5162 6.5,50C 4.5313,48.5002 3.19796,46.6669 2.5,44.5C 3.08828,41.9369 4.08828,39.6036 5.5,37.5C 6.23891,37.369 6.90558,37.5357 7.5,38C 6.83333,39.3333 6.16667,40.6667 5.5,42C 6.86328,43.9449 7.69661,46.1116 8,48.5C 14.7066,47.6719 21.2066,47.0052 27.5,46.5C 28.531,47.2485 29.6976,47.9152 31,48.5C 36.0676,47.9014 41.4009,47.9014 47,48.5C 47.6667,47.8333 48.3333,47.1667 49,46.5C 50.851,48.7811 52.5177,48.7811 54,46.5C 56.7003,48.2344 58.7003,50.5677 60,53.5C 61.2515,60.1057 63.7515,66.1057 67.5,71.5C 69.6204,70.5967 69.9538,69.2633 68.5,67.5C 73.7613,63.9089 78.428,59.5756 82.5,54.5C 83.4066,51.5788 83.7399,48.5788 83.5,45.5C 84.8734,45.6567 86.2068,45.49 87.5,45C 89.3515,42.5553 91.3515,41.0553 93.5,40.5C 91.7389,38.7475 90.4056,36.7475 89.5,34.5C 89.6799,33.4461 90.0133,32.4461 90.5,31.5C 87.6616,27.1149 86.8283,22.4482 88,17.5C 87.2588,18.6405 86.4255,18.6405 85.5,17.5C 83.8099,14.9763 81.6432,12.9763 79,11.5C 72.9691,11.2048 66.8024,11.5382 60.5,12.5C 59.4593,10.0087 58.6259,10.0087 58,12.5C 56.6631,10.9963 54.9964,9.99627 53,9.5C 42.4833,10.6501 31.9833,10.6501 21.5,9.5C 41.9959,8.33738 62.6626,8.17072 83.5,9C 85.4105,10.4959 87.4105,11.8292 89.5,13C 88.8333,13.6667 88.1667,14.3333 87.5,15C 89.1804,17.2081 91.1804,19.0414 93.5,20.5 Z"/></g>
<g><path style="opacity:0.198" fill="#53110f" d="M 100.5,39.5 C 101.458,39.9528 102.292,40.6195 103,41.5C 103.638,44.7643 104.804,47.7643 106.5,50.5C 105.527,51.7914 104.527,51.7914 103.5,50.5C 102.289,49.7261 102.289,48.8928 103.5,48C 102.167,47 100.833,46 99.5,45C 100.406,43.3005 100.739,41.4672 100.5,39.5 Z"/></g>
<g><path style="opacity:0.067" fill="#6d0f10" d="M 2.5,44.5 C 3.19796,46.6669 4.5313,48.5002 6.5,50C 20.7842,50.5162 34.9508,51.0162 49,51.5C 50.663,50.0104 52.3296,49.3437 54,49.5C 55.2915,51.2487 56.4582,53.082 57.5,55C 57.0594,57.4533 57.5594,59.9533 59,62.5C 61.9839,63.8719 62.1506,65.5386 59.5,67.5C 57.3914,62.5876 55.058,57.7543 52.5,53C 36.5,52.6667 20.5,52.3333 4.5,52C 2.25074,49.7775 1.58407,47.2775 2.5,44.5 Z"/></g>
<g><path style="opacity:0.005" fill="#060000" d="M 155.5,55.5 C 164.251,55.1968 172.918,55.5301 181.5,56.5C 181.5,56.8333 181.5,57.1667 181.5,57.5C 177.693,57.5655 173.693,57.2321 169.5,56.5C 164.637,56.8195 159.97,56.4861 155.5,55.5 Z"/></g>
<g><path style="opacity:1" fill="#7e0000" d="M 105.5,59.5 C 107.238,61.4335 109.071,61.7669 111,60.5C 111.667,61.8333 112.667,62.8333 114,63.5C 116.432,62.7071 118.766,62.3737 121,62.5C 121.925,63.0465 122.758,63.7132 123.5,64.5C 121.351,70.4599 118.184,75.7933 114,80.5C 114.011,84.8255 112.011,87.8255 108,89.5C 106.887,90.7604 106.72,91.927 107.5,93C 105.116,95.3792 103.616,98.2125 103,101.5C 99.8044,104.68 97.4711,108.347 96,112.5C 94.3163,114.351 92.4829,116.018 90.5,117.5C 89.5,117 88.5,116.5 87.5,116C 84.8957,112.176 83.0624,108.009 82,103.5C 81.0975,102.299 79.9308,101.465 78.5,101C 79.5796,98.7009 79.2463,96.5342 77.5,94.5C 78.8471,95.1712 80.0138,95.1712 81,94.5C 82.0295,97.8753 84.1961,99.0419 87.5,98C 82.7854,92.5837 83.9521,89.0837 91,87.5C 91.4955,85.5273 91.6621,83.5273 91.5,81.5C 94.1865,80.3362 96.5199,78.5029 98.5,76C 97.2889,74.8869 97.2889,73.7202 98.5,72.5C 102.345,70.5348 104.179,67.5348 104,63.5C 100.526,60.125 101.026,58.7917 105.5,59.5 Z"/></g>
<g><path style="opacity:0.985" fill="#4a0102" d="M 158.5,58.5 C 163.844,58.334 169.177,58.5006 174.5,59C 176.679,59.4419 177.345,60.4419 176.5,62C 179.146,62.4974 181.813,62.6641 184.5,62.5C 184.657,63.8734 184.49,65.2068 184,66.5C 179.043,72.0797 175.376,78.413 173,85.5C 167.58,92.6668 162.913,100.333 159,108.5C 156.727,111.804 153.561,113.304 149.5,113C 151.891,113.691 151.891,114.691 149.5,116C 145.101,115.464 140.768,115.464 136.5,116C 135.167,117 135.167,118 136.5,119C 135.833,120.333 134.833,121.333 133.5,122C 134.337,123.011 134.67,124.178 134.5,125.5C 137.205,125.38 137.872,126.38 136.5,128.5C 137.313,129.814 138.313,130.981 139.5,132C 138.874,132.75 138.374,133.584 138,134.5C 136.484,131.949 135.651,132.282 135.5,135.5C 133.226,138.855 131.393,142.522 130,146.5C 128.333,147.5 126.667,148.5 125,149.5C 121.651,156.249 118.318,162.915 115,169.5C 113.488,171.957 112.154,171.957 111,169.5C 110.667,170.5 110.333,171.5 110,172.5C 109.23,171.402 108.397,171.402 107.5,172.5C 106.798,171.884 105.798,171.884 104.5,172.5C 104.5,172.167 104.5,171.833 104.5,171.5C 105.774,170.811 105.774,169.977 104.5,169C 105.672,168.581 106.672,167.915 107.5,167C 104.56,163.045 101.56,159.045 98.5,155C 99.8331,153.16 99.6665,152.66 98,153.5C 97.5831,152.244 96.7498,151.577 95.5,151.5C 91.5392,142.235 87.5392,132.901 83.5,123.5C 86.2617,123.886 87.2617,125.219 86.5,127.5C 87,127.833 87.5,128.167 88,128.5C 89.4162,127.427 90.7496,127.427 92,128.5C 93.5127,132.188 95.0127,135.855 96.5,139.5C 95.325,139.281 94.325,139.614 93.5,140.5C 98.1321,144.926 101.965,150.593 105,157.5C 108.985,154.855 111.319,151.188 112,146.5C 113.833,144.833 115.667,143.167 117.5,141.5C 119.076,137.762 121.243,134.429 124,131.5C 124.361,126.945 126.194,123.112 129.5,120C 128.549,119.282 128.383,118.449 129,117.5C 131.667,114.833 134.333,112.167 137,109.5C 137.454,107.229 138.121,104.896 139,102.5C 142.59,97.2679 146.59,92.2679 151,87.5C 151.346,85.7818 151.846,84.1151 152.5,82.5C 156.548,80.0051 158.715,76.6718 159,72.5C 160.833,70.6667 162.667,68.8333 164.5,67C 163.107,65.8289 162.273,64.3289 162,62.5C 160.657,63.2135 159.324,62.8802 158,61.5C 156.273,62.374 154.44,62.2074 152.5,61C 154.301,60.6827 154.634,60.016 153.5,59C 154,58.5 154.5,58 155,57.5C 156.145,57.6191 157.312,57.9524 158.5,58.5 Z"/></g>
<g><path style="opacity:0.989" fill="#100000" d="M 280.5,56.5 C 280.833,56.5 281.167,56.5 281.5,56.5C 286.042,58.3505 290.709,59.5172 295.5,60C 294.78,62.1223 293.613,62.6223 292,61.5C 289.061,62.1281 286.228,62.7948 283.5,63.5C 282.175,62.0474 281.342,62.3808 281,64.5C 277.17,62.7401 274.17,63.7401 272,67.5C 272.305,69.4432 272.305,71.4432 272,73.5C 270.255,74.9557 268.422,76.289 266.5,77.5C 263.16,84.8524 259.327,91.8524 255,98.5C 253,100.167 251,101.833 249,103.5C 248.503,106.146 248.336,108.813 248.5,111.5C 245.99,111.054 243.99,111.72 242.5,113.5C 237.309,113.813 236.143,111.813 239,107.5C 243.326,103.503 246.66,98.8365 249,93.5C 251.892,92.1581 253.225,89.8248 253,86.5C 258.118,81.8113 261.451,76.1446 263,69.5C 264.972,68.6948 266.472,67.3615 267.5,65.5C 269.805,64.5076 271.805,63.841 273.5,63.5C 260.179,62.334 246.846,62.1673 233.5,63C 235.259,63.9804 236.926,64.647 238.5,65C 236.368,65.918 235.701,67.2513 236.5,69C 234.707,71.7953 232.54,74.2953 230,76.5C 227.631,82.6646 224.964,88.6646 222,94.5C 218.973,97.527 215.973,100.527 213,103.5C 212.078,106.991 210.911,110.325 209.5,113.5C 208.167,113.5 206.833,113.5 205.5,113.5C 205.279,112.265 204.612,111.265 203.5,110.5C 204.169,105.336 206.669,101.336 211,98.5C 213.879,92.2949 217.546,86.6282 222,81.5C 223.755,74.8169 226.922,68.9836 231.5,64C 228.854,63.5026 226.187,63.3359 223.5,63.5C 222.694,62.2719 221.694,61.2719 220.5,60.5C 240.5,59.1667 260.5,57.8333 280.5,56.5 Z"/></g>
<g><path style="opacity:1" fill="#6a0101" d="M 105.5,55.5 C 107.395,56.7028 109.395,57.8695 111.5,59C 117.5,59.3333 123.5,59.6667 129.5,60C 134.137,60.8097 138.637,61.9764 143,63.5C 143.805,61.0989 144.638,61.2656 145.5,64C 144.736,66.0693 144.236,68.236 144,70.5C 142.488,71.2567 141.154,72.2567 140,73.5C 136.128,83.5666 130.461,92.5666 123,100.5C 117.267,110.873 111.6,121.206 106,131.5C 103.833,134.333 101.667,137.167 99.5,140C 98.4232,140.47 97.4232,140.303 96.5,139.5C 95.0127,135.855 93.5127,132.188 92,128.5C 90.7496,127.427 89.4162,127.427 88,128.5C 87.5,128.167 87,127.833 86.5,127.5C 87.2617,125.219 86.2617,123.886 83.5,123.5C 77.7088,111.037 72.3755,98.3702 67.5,85.5C 68.8221,85.67 69.9887,85.3366 71,84.5C 71.7203,86.1124 71.5536,87.6124 70.5,89C 72.3939,90.1011 73.0606,91.4345 72.5,93C 74,93.8333 75.1667,95 76,96.5C 76.2784,95.5842 76.7784,94.9175 77.5,94.5C 79.2463,96.5342 79.5796,98.7009 78.5,101C 79.9308,101.465 81.0975,102.299 82,103.5C 83.0624,108.009 84.8957,112.176 87.5,116C 88.5,116.5 89.5,117 90.5,117.5C 92.4829,116.018 94.3163,114.351 96,112.5C 97.4711,108.347 99.8044,104.68 103,101.5C 103.616,98.2125 105.116,95.3792 107.5,93C 106.72,91.927 106.887,90.7604 108,89.5C 112.011,87.8255 114.011,84.8255 114,80.5C 118.184,75.7933 121.351,70.4599 123.5,64.5C 122.758,63.7132 121.925,63.0465 121,62.5C 118.766,62.3737 116.432,62.7071 114,63.5C 112.667,62.8333 111.667,61.8333 111,60.5C 109.071,61.7669 107.238,61.4335 105.5,59.5C 106.405,58.0357 106.405,56.7024 105.5,55.5 Z"/></g>
<g><path style="opacity:0.999" fill="#360202" d="M 169.5,56.5 C 173.693,57.2321 177.693,57.5655 181.5,57.5C 181.542,58.479 181.542,59.479 181.5,60.5C 184.878,59.9182 188.045,59.9182 191,60.5C 191.333,59.8333 191.667,59.1667 192,58.5C 193,59.8333 194,61.1667 195,62.5C 195.333,62.1667 195.667,61.8333 196,61.5C 197.399,62.2266 198.899,62.7266 200.5,63C 198.5,63.3333 196.5,63.6667 194.5,64C 195.517,65.0495 195.684,66.2161 195,67.5C 190.43,74.9672 186.096,82.6339 182,90.5C 178.821,94.8713 175.655,99.2046 172.5,103.5C 171.658,107.161 170.158,110.494 168,113.5C 166.601,114.227 165.101,114.727 163.5,115C 167.821,115.499 172.154,115.666 176.5,115.5C 176.04,116.442 174.707,117.109 172.5,117.5C 169.942,116.984 167.442,116.65 165,116.5C 159.583,117.309 154.083,117.809 148.5,118C 148,118.5 147.5,119 147,119.5C 146,119.167 145,118.833 144,118.5C 143.283,119.044 142.783,119.711 142.5,120.5C 140.052,120.01 138.385,120.843 137.5,123C 142.281,133.863 146.948,144.696 151.5,155.5C 150.71,156.609 150.21,157.942 150,159.5C 148.519,156.956 146.352,155.29 143.5,154.5C 141.191,158.14 138.524,161.473 135.5,164.5C 134.846,166.115 134.346,167.782 134,169.5C 131.248,172.578 128.914,175.911 127,179.5C 121.777,182.723 119.944,186.89 121.5,192C 120.022,193.478 118.522,194.978 117,196.5C 115.383,195.464 115.216,194.297 116.5,193C 115.833,192.667 115.167,192.333 114.5,192C 115.672,191.581 116.672,190.915 117.5,190C 116.167,187.991 114.5,186.324 112.5,185C 113.451,184.282 113.617,183.449 113,182.5C 111.586,183.413 110.086,183.413 108.5,182.5C 107.631,178.97 106.297,175.636 104.5,172.5C 105.798,171.884 106.798,171.884 107.5,172.5C 107.259,175.999 108.092,176.332 110,173.5C 110.422,176.236 110.422,178.902 110,181.5C 113.331,180.864 115.997,182.197 118,185.5C 119.026,180.462 121.693,176.462 126,173.5C 127.538,167.369 130.538,162.036 135,157.5C 135.249,154.823 136.249,152.49 138,150.5C 139.366,147.436 139.866,144.436 139.5,141.5C 138.636,139.803 137.303,138.637 135.5,138C 136.774,137.023 136.774,136.189 135.5,135.5C 135.651,132.282 136.484,131.949 138,134.5C 138.374,133.584 138.874,132.75 139.5,132C 138.313,130.981 137.313,129.814 136.5,128.5C 137.872,126.38 137.205,125.38 134.5,125.5C 134.67,124.178 134.337,123.011 133.5,122C 134.833,121.333 135.833,120.333 136.5,119C 135.167,118 135.167,117 136.5,116C 140.768,115.464 145.101,115.464 149.5,116C 151.891,114.691 151.891,113.691 149.5,113C 153.561,113.304 156.727,111.804 159,108.5C 162.913,100.333 167.58,92.6668 173,85.5C 175.376,78.413 179.043,72.0797 184,66.5C 184.49,65.2068 184.657,63.8734 184.5,62.5C 181.813,62.6641 179.146,62.4974 176.5,62C 177.345,60.4419 176.679,59.4419 174.5,59C 169.177,58.5006 163.844,58.334 158.5,58.5C 162.167,57.8333 165.833,57.1667 169.5,56.5 Z"/></g>
<g><path style="opacity:0.999" fill="#3b0101" d="M 352.5,58.5 C 353.463,59.3635 353.463,60.0302 352.5,60.5C 348.92,59.6837 345.42,59.3504 342,59.5C 340.601,60.2266 339.101,60.7266 337.5,61C 339.5,61.3333 341.5,61.6667 343.5,62C 338.833,62.6667 334.167,63.3333 329.5,64C 330.167,64.3333 330.833,64.6667 331.5,65C 329.256,70.7344 326.089,75.901 322,80.5C 320.905,84.612 318.572,87.9453 315,90.5C 312.337,97.1676 308.671,103.168 304,108.5C 303.28,110.112 303.446,111.612 304.5,113C 306.878,113.511 309.212,114.178 311.5,115C 312.573,116.594 313.573,118.094 314.5,119.5C 316.045,120.452 317.712,120.785 319.5,120.5C 319.281,119.325 319.614,118.325 320.5,117.5C 321.924,119.718 323.924,121.218 326.5,122C 325.619,122.708 324.953,123.542 324.5,124.5C 320.716,122.684 316.716,121.684 312.5,121.5C 311.77,120.288 310.77,119.288 309.5,118.5C 310.609,117.035 310.109,116.035 308,115.5C 306.796,116.471 306.296,117.471 306.5,118.5C 305.5,117.833 304.5,117.167 303.5,116.5C 302.575,117.641 301.741,117.641 301,116.5C 300.612,117.428 299.945,118.095 299,118.5C 291.191,117.647 283.357,116.98 275.5,116.5C 275.263,115.209 275.596,114.209 276.5,113.5C 277.152,114.725 278.319,115.392 280,115.5C 284.248,115.397 284.414,114.897 280.5,114C 281.9,110.598 284.067,107.764 287,105.5C 289.36,98.4612 293.36,92.4612 299,87.5C 301.313,82.8748 303.646,78.2081 306,73.5C 307.708,71.4565 309.708,69.7899 312,68.5C 312.825,66.2992 312.325,64.4659 310.5,63C 311.416,62.7216 312.082,62.2216 312.5,61.5C 314.705,61.1482 316.538,60.1482 318,58.5C 318.667,61.1667 319.333,61.1667 320,58.5C 320.725,60.158 321.892,60.658 323.5,60C 321.405,59.4444 321.238,58.9444 323,58.5C 324.301,59.8932 325.801,60.3932 327.5,60C 324.937,59.237 324.937,58.737 327.5,58.5C 335.505,58.9162 343.838,58.9162 352.5,58.5 Z"/></g>
<g><path style="opacity:1" fill="#5a0101" d="M 106.5,51.5 C 107.404,52.209 107.737,53.209 107.5,54.5C 123.491,55.1664 139.491,55.4997 155.5,55.5C 159.97,56.4861 164.637,56.8195 169.5,56.5C 165.833,57.1667 162.167,57.8333 158.5,58.5C 157.312,57.9524 156.145,57.6191 155,57.5C 154.5,58 154,58.5 153.5,59C 154.634,60.016 154.301,60.6827 152.5,61C 154.44,62.2074 156.273,62.374 158,61.5C 159.324,62.8802 160.657,63.2135 162,62.5C 162.273,64.3289 163.107,65.8289 164.5,67C 162.667,68.8333 160.833,70.6667 159,72.5C 158.715,76.6718 156.548,80.0051 152.5,82.5C 151.846,84.1151 151.346,85.7818 151,87.5C 146.59,92.2679 142.59,97.2679 139,102.5C 138.121,104.896 137.454,107.229 137,109.5C 134.333,112.167 131.667,114.833 129,117.5C 128.383,118.449 128.549,119.282 129.5,120C 126.194,123.112 124.361,126.945 124,131.5C 121.243,134.429 119.076,137.762 117.5,141.5C 115.667,143.167 113.833,144.833 112,146.5C 111.319,151.188 108.985,154.855 105,157.5C 101.965,150.593 98.1321,144.926 93.5,140.5C 94.325,139.614 95.325,139.281 96.5,139.5C 97.4232,140.303 98.4232,140.47 99.5,140C 101.667,137.167 103.833,134.333 106,131.5C 111.6,121.206 117.267,110.873 123,100.5C 130.461,92.5666 136.128,83.5666 140,73.5C 141.154,72.2567 142.488,71.2567 144,70.5C 144.236,68.236 144.736,66.0693 145.5,64C 144.638,61.2656 143.805,61.0989 143,63.5C 138.637,61.9764 134.137,60.8097 129.5,60C 123.5,59.6667 117.5,59.3333 111.5,59C 109.395,57.8695 107.395,56.7028 105.5,55.5C 106.234,54.2921 106.567,52.9587 106.5,51.5 Z"/></g>
<g><path style="opacity:1" fill="#2d0101" d="M 181.5,57.5 C 181.5,57.1667 181.5,56.8333 181.5,56.5C 214.5,56.5 247.5,56.5 280.5,56.5C 260.5,57.8333 240.5,59.1667 220.5,60.5C 219.761,60.369 219.094,60.5357 218.5,61C 219.696,61.6543 219.696,62.1543 218.5,62.5C 217.23,61.4378 216.063,60.4378 215,59.5C 214.333,62.1667 213.667,62.1667 213,59.5C 212.667,60.1667 212.333,60.8333 212,61.5C 208.314,60.8692 204.814,60.8692 201.5,61.5C 202.242,62.2868 203.075,62.9535 204,63.5C 205.333,63.5 206.667,63.5 208,63.5C 207.947,65.788 207.614,68.1214 207,70.5C 204.228,73.6937 201.228,76.6937 198,79.5C 198.063,83.4421 196.397,86.4421 193,88.5C 190.816,91.8662 189.483,95.5328 189,99.5C 185.065,105.048 180.898,110.382 176.5,115.5C 172.154,115.666 167.821,115.499 163.5,115C 165.101,114.727 166.601,114.227 168,113.5C 170.158,110.494 171.658,107.161 172.5,103.5C 175.655,99.2046 178.821,94.8713 182,90.5C 186.096,82.6339 190.43,74.9672 195,67.5C 195.684,66.2161 195.517,65.0495 194.5,64C 196.5,63.6667 198.5,63.3333 200.5,63C 198.899,62.7266 197.399,62.2266 196,61.5C 195.667,61.8333 195.333,62.1667 195,62.5C 194,61.1667 193,59.8333 192,58.5C 191.667,59.1667 191.333,59.8333 191,60.5C 188.045,59.9182 184.878,59.9182 181.5,60.5C 181.542,59.479 181.542,58.479 181.5,57.5 Z"/></g>
<g><path style="opacity:1" fill="#2e0000" d="M 312.5,61.5 C 312.082,62.2216 311.416,62.7216 310.5,63C 312.325,64.4659 312.825,66.2992 312,68.5C 309.708,69.7899 307.708,71.4565 306,73.5C 303.646,78.2081 301.313,82.8748 299,87.5C 293.36,92.4612 289.36,98.4612 287,105.5C 284.067,107.764 281.9,110.598 280.5,114C 284.414,114.897 284.248,115.397 280,115.5C 278.319,115.392 277.152,114.725 276.5,113.5C 274.891,112.102 274.058,110.435 274,108.5C 277,105.5 280,102.5 283,99.5C 285.628,92.9258 288.628,86.5924 292,80.5C 297.611,75.4044 302.111,69.5711 305.5,63C 305.167,62.6667 304.833,62.3333 304.5,62C 305.416,61.6258 306.25,61.1258 307,60.5C 309.025,61.2603 310.858,61.5936 312.5,61.5 Z"/></g>
<g><path style="opacity:1" fill="#490101" d="M 354.5,57.5 C 359.968,58.6634 365.302,59.9967 370.5,61.5C 368.529,62.8231 366.529,64.1565 364.5,65.5C 359.378,65.7994 354.044,65.2994 348.5,64C 348.833,64.3333 349.167,64.6667 349.5,65C 342.507,69.6651 338.34,76.1651 337,84.5C 331.129,89.6841 327.129,96.0174 325,103.5C 322.982,105.35 321.149,107.35 319.5,109.5C 319.88,111.021 320.046,112.687 320,114.5C 324.444,115.942 327.11,118.942 328,123.5C 329.299,123.966 330.799,123.966 332.5,123.5C 332.5,124.833 332.5,126.167 332.5,127.5C 330.113,125.897 327.446,124.897 324.5,124.5C 324.953,123.542 325.619,122.708 326.5,122C 323.924,121.218 321.924,119.718 320.5,117.5C 319.614,118.325 319.281,119.325 319.5,120.5C 317.712,120.785 316.045,120.452 314.5,119.5C 313.573,118.094 312.573,116.594 311.5,115C 309.212,114.178 306.878,113.511 304.5,113C 303.446,111.612 303.28,110.112 304,108.5C 308.671,103.168 312.337,97.1676 315,90.5C 318.572,87.9453 320.905,84.612 322,80.5C 326.089,75.901 329.256,70.7344 331.5,65C 330.833,64.6667 330.167,64.3333 329.5,64C 334.167,63.3333 338.833,62.6667 343.5,62C 341.5,61.6667 339.5,61.3333 337.5,61C 339.101,60.7266 340.601,60.2266 342,59.5C 345.42,59.3504 348.92,59.6837 352.5,60.5C 353.463,60.0302 353.463,59.3635 352.5,58.5C 353.492,58.6716 354.158,58.3382 354.5,57.5 Z"/></g>
<g><path style="opacity:1" fill="#5a0101" d="M 370.5,61.5 C 376.723,63.0101 382.056,66.0101 386.5,70.5C 385.482,74.1297 383.649,74.463 381,71.5C 380.667,71.8333 380.333,72.1667 380,72.5C 380,71.1667 380,69.8333 380,68.5C 378.333,69.1667 376.667,69.8333 375,70.5C 372.439,69.8879 369.606,69.7213 366.5,70C 358.696,77.1164 353.03,85.6164 349.5,95.5C 346.059,98.0595 343.892,101.393 343,105.5C 333.993,113.513 334.493,121.013 344.5,128C 343.831,130.262 343.498,132.429 343.5,134.5C 340.08,131.741 336.414,129.408 332.5,127.5C 332.5,126.167 332.5,124.833 332.5,123.5C 330.799,123.966 329.299,123.966 328,123.5C 327.11,118.942 324.444,115.942 320,114.5C 320.046,112.687 319.88,111.021 319.5,109.5C 321.149,107.35 322.982,105.35 325,103.5C 327.129,96.0174 331.129,89.6841 337,84.5C 338.34,76.1651 342.507,69.6651 349.5,65C 349.167,64.6667 348.833,64.3333 348.5,64C 354.044,65.2994 359.378,65.7994 364.5,65.5C 366.529,64.1565 368.529,62.8231 370.5,61.5 Z"/></g>
<g><path style="opacity:1" fill="#6b0101" d="M 386.5,70.5 C 396.193,76.5274 403.86,84.5274 409.5,94.5C 406.279,94.1039 403.612,92.7705 401.5,90.5C 402.267,89.828 402.934,88.9947 403.5,88C 400.105,86.4952 396.771,84.9952 393.5,83.5C 390.479,80.5641 386.979,78.2308 383,76.5C 381.332,79.0858 379.665,81.7524 378,84.5C 377.51,85.7932 377.343,87.1266 377.5,88.5C 376.5,88.5 375.5,88.5 374.5,88.5C 374.662,90.5273 374.495,92.5273 374,94.5C 370.003,97.1534 367.669,100.82 367,105.5C 364.297,108.538 361.297,111.205 358,113.5C 357.667,116.167 357.333,118.833 357,121.5C 353.026,122.093 350.859,124.427 350.5,128.5C 352.782,133.138 355.116,137.804 357.5,142.5C 355.293,144.716 355.293,146.882 357.5,149C 356.944,149.383 356.611,149.883 356.5,150.5C 352.864,144.537 348.53,139.204 343.5,134.5C 343.498,132.429 343.831,130.262 344.5,128C 334.493,121.013 333.993,113.513 343,105.5C 343.892,101.393 346.059,98.0595 349.5,95.5C 353.03,85.6164 358.696,77.1164 366.5,70C 369.606,69.7213 372.439,69.8879 375,70.5C 376.667,69.8333 378.333,69.1667 380,68.5C 380,69.8333 380,71.1667 380,72.5C 380.333,72.1667 380.667,71.8333 381,71.5C 383.649,74.463 385.482,74.1297 386.5,70.5 Z"/></g>
<g><path style="opacity:0.796" fill="#720f0e" d="M 67.5,85.5 C 64.689,79.979 62.0224,74.3124 59.5,68.5C 60.7498,68.4226 61.5831,67.756 62,66.5C 63.113,67.7604 63.2797,68.927 62.5,70C 64.3333,71.5 66.1667,73 68,74.5C 68.2198,78.3769 68.0532,82.0435 67.5,85.5 Z"/></g>
<g><path style="opacity:1" fill="#7d0000" d="M 393.5,83.5 C 392.099,83.9709 390.766,84.6376 389.5,85.5C 384.543,93.1615 380.043,101.162 376,109.5C 374.333,110.5 373,111.833 372,113.5C 369.61,120.619 365.943,126.953 361,132.5C 359.308,135.776 358.141,139.109 357.5,142.5C 355.116,137.804 352.782,133.138 350.5,128.5C 350.859,124.427 353.026,122.093 357,121.5C 357.333,118.833 357.667,116.167 358,113.5C 361.297,111.205 364.297,108.538 367,105.5C 367.669,100.82 370.003,97.1534 374,94.5C 374.495,92.5273 374.662,90.5273 374.5,88.5C 375.5,88.5 376.5,88.5 377.5,88.5C 377.343,87.1266 377.51,85.7932 378,84.5C 379.665,81.7524 381.332,79.0858 383,76.5C 386.979,78.2308 390.479,80.5641 393.5,83.5 Z"/></g>
<g><path style="opacity:0.998" fill="#8b0303" d="M 393.5,83.5 C 396.771,84.9952 400.105,86.4952 403.5,88C 402.934,88.9947 402.267,89.828 401.5,90.5C 400.373,89.8783 399.373,89.045 398.5,88C 397.5,87.3333 396.5,87.3333 395.5,88C 393.287,92.2436 390.454,96.077 387,99.5C 384.333,104.833 381.667,110.167 379,115.5C 373.083,124.331 367.417,133.331 362,142.5C 361.421,146.203 361.588,149.869 362.5,153.5C 362.29,160.414 362.124,167.748 362,175.5C 359.888,177.992 359.388,180.658 360.5,183.5C 359.5,183.5 358.5,183.5 357.5,183.5C 357.737,184.791 357.404,185.791 356.5,186.5C 357.826,180.196 358.826,173.862 359.5,167.5C 360.808,163.981 360.808,160.315 359.5,156.5C 358.85,154.816 357.85,153.483 356.5,152.5C 356.5,151.833 356.5,151.167 356.5,150.5C 356.611,149.883 356.944,149.383 357.5,149C 355.293,146.882 355.293,144.716 357.5,142.5C 358.141,139.109 359.308,135.776 361,132.5C 365.943,126.953 369.61,120.619 372,113.5C 373,111.833 374.333,110.5 376,109.5C 380.043,101.162 384.543,93.1615 389.5,85.5C 390.766,84.6376 392.099,83.9709 393.5,83.5 Z"/></g>
<g><path style="opacity:0.999" fill="#970203" d="M 401.5,90.5 C 403.612,92.7705 406.279,94.1039 409.5,94.5C 412.889,98.3944 415.556,102.728 417.5,107.5C 416.518,108.141 415.518,108.807 414.5,109.5C 413.139,107.972 411.972,106.305 411,104.5C 410,104.5 409,104.5 408,104.5C 407.705,102.069 406.538,100.236 404.5,99C 407.097,98.2208 407.097,97.7208 404.5,97.5C 405.602,95.9081 404.935,95.0748 402.5,95C 400.982,92.3871 399.149,92.5537 397,95.5C 389.081,108.335 381.415,121.335 374,134.5C 371.957,136.208 370.29,138.208 369,140.5C 366.404,144.841 364.237,149.174 362.5,153.5C 361.588,149.869 361.421,146.203 362,142.5C 367.417,133.331 373.083,124.331 379,115.5C 381.667,110.167 384.333,104.833 387,99.5C 390.454,96.077 393.287,92.2436 395.5,88C 396.5,87.3333 397.5,87.3333 398.5,88C 399.373,89.045 400.373,89.8783 401.5,90.5 Z"/></g>
<g><path style="opacity:1" fill="#a30102" d="M 404.5,97.5 C 402.61,97.2965 401.11,97.9632 400,99.5C 397.914,104.763 394.914,109.43 391,113.5C 384.493,123.843 378.493,134.51 373,145.5C 368.276,149.388 366.109,154.221 366.5,160C 365.695,164.749 365.195,169.582 365,174.5C 363.516,177.62 362.016,180.62 360.5,183.5C 359.388,180.658 359.888,177.992 362,175.5C 362.124,167.748 362.29,160.414 362.5,153.5C 364.237,149.174 366.404,144.841 369,140.5C 370.29,138.208 371.957,136.208 374,134.5C 381.415,121.335 389.081,108.335 397,95.5C 399.149,92.5537 400.982,92.3871 402.5,95C 404.935,95.0748 405.602,95.9081 404.5,97.5 Z"/></g>
<g><path style="opacity:0.999" fill="#b10202" d="M 404.5,97.5 C 407.097,97.7208 407.097,98.2208 404.5,99C 406.538,100.236 407.705,102.069 408,104.5C 409,104.5 410,104.5 411,104.5C 411.972,106.305 413.139,107.972 414.5,109.5C 415.518,108.807 416.518,108.141 417.5,107.5C 419.438,112.384 421.105,117.384 422.5,122.5C 421.504,122.414 420.671,122.748 420,123.5C 419.614,119.483 417.781,117.483 414.5,117.5C 413.4,116.395 412.733,115.062 412.5,113.5C 413.203,111.966 413.036,110.299 412,108.5C 411.667,108.833 411.333,109.167 411,109.5C 409.667,108.167 408.333,106.833 407,105.5C 401.432,116.072 395.432,126.405 389,136.5C 383.493,145.515 377.493,154.182 371,162.5C 368.292,170.254 365.292,177.921 362,185.5C 360.807,187.497 359.307,189.164 357.5,190.5C 357.167,189.167 356.833,187.833 356.5,186.5C 357.404,185.791 357.737,184.791 357.5,183.5C 358.5,183.5 359.5,183.5 360.5,183.5C 362.016,180.62 363.516,177.62 365,174.5C 365.195,169.582 365.695,164.749 366.5,160C 366.109,154.221 368.276,149.388 373,145.5C 378.493,134.51 384.493,123.843 391,113.5C 394.914,109.43 397.914,104.763 400,99.5C 401.11,97.9632 402.61,97.2965 404.5,97.5 Z"/></g>
<g><path style="opacity:1" fill="#be0101" d="M 412.5,113.5 C 411.142,112.374 409.808,112.374 408.5,113.5C 406.333,119.176 403.166,124.176 399,128.5C 392,141.842 384,154.509 375,166.5C 367.843,182.161 359.176,196.828 349,210.5C 339.431,227.74 329.431,244.74 319,261.5C 317.667,262.833 316.333,264.167 315,265.5C 313.257,269.984 311.257,274.317 309,278.5C 308.223,281.429 308.39,284.263 309.5,287C 308.809,288.067 308.309,289.234 308,290.5C 307.329,289.748 306.496,289.414 305.5,289.5C 305.799,288.24 305.799,287.073 305.5,286C 304.307,284.905 302.973,284.072 301.5,283.5C 300.833,283.5 300.5,283.167 300.5,282.5C 301.71,282.068 302.71,281.401 303.5,280.5C 305.28,277.123 304.613,273.957 301.5,271C 303.871,266.287 307.037,262.121 311,258.5C 313.418,251.251 317.418,244.918 323,239.5C 323.826,233.18 326.826,228.18 332,224.5C 333.61,222.403 334.777,220.07 335.5,217.5C 339.328,215.014 341.995,211.681 343.5,207.5C 347.211,205.477 350.045,202.477 352,198.5C 353.364,199.258 354.531,198.758 355.5,197C 355.167,196.667 354.833,196.333 354.5,196C 355.758,194.259 356.758,192.426 357.5,190.5C 359.307,189.164 360.807,187.497 362,185.5C 365.292,177.921 368.292,170.254 371,162.5C 377.493,154.182 383.493,145.515 389,136.5C 395.432,126.405 401.432,116.072 407,105.5C 408.333,106.833 409.667,108.167 411,109.5C 411.333,109.167 411.667,108.833 412,108.5C 413.036,110.299 413.203,111.966 412.5,113.5 Z"/></g>
<g><path style="opacity:1" fill="#ca0202" d="M 412.5,113.5 C 412.733,115.062 413.4,116.395 414.5,117.5C 413.103,117.795 411.603,118.129 410,118.5C 408.475,124.439 405.475,129.439 401,133.5C 398.196,137.443 396.196,141.777 395,146.5C 393,148.5 391,150.5 389,152.5C 385.014,161.14 380.014,169.14 374,176.5C 371.475,184.105 367.475,190.772 362,196.5C 361.54,200.752 359.54,204.085 356,206.5C 354.908,209.044 354.241,211.711 354,214.5C 346.841,222.141 341.174,230.808 337,240.5C 332.069,245.756 328.402,251.756 326,258.5C 321.406,263.427 318.073,269.093 316,275.5C 312.127,278.947 310.294,283.281 310.5,288.5C 309.347,289.313 309.347,290.313 310.5,291.5C 309.833,291.833 309.167,292.167 308.5,292.5C 310.288,296.582 311.955,300.749 313.5,305C 313.316,306.376 312.649,307.209 311.5,307.5C 308.755,302.06 306.422,296.393 304.5,290.5C 305.167,290.5 305.5,290.167 305.5,289.5C 306.496,289.414 307.329,289.748 308,290.5C 308.309,289.234 308.809,288.067 309.5,287C 308.39,284.263 308.223,281.429 309,278.5C 311.257,274.317 313.257,269.984 315,265.5C 316.333,264.167 317.667,262.833 319,261.5C 329.431,244.74 339.431,227.74 349,210.5C 359.176,196.828 367.843,182.161 375,166.5C 384,154.509 392,141.842 399,128.5C 403.166,124.176 406.333,119.176 408.5,113.5C 409.808,112.374 411.142,112.374 412.5,113.5 Z"/></g>
<g><path style="opacity:0.157" fill="#260504" d="M 281.5,56.5 C 306.002,56.3426 330.336,56.6759 354.5,57.5C 354.158,58.3382 353.492,58.6716 352.5,58.5C 343.838,58.9162 335.505,58.9162 327.5,58.5C 324.937,58.737 324.937,59.237 327.5,60C 325.801,60.3932 324.301,59.8932 323,58.5C 321.238,58.9444 321.405,59.4444 323.5,60C 321.892,60.658 320.725,60.158 320,58.5C 319.333,61.1667 318.667,61.1667 318,58.5C 316.538,60.1482 314.705,61.1482 312.5,61.5C 310.858,61.5936 309.025,61.2603 307,60.5C 306.25,61.1258 305.416,61.6258 304.5,62C 304.833,62.3333 305.167,62.6667 305.5,63C 302.111,69.5711 297.611,75.4044 292,80.5C 288.628,86.5924 285.628,92.9258 283,99.5C 280,102.5 277,105.5 274,108.5C 274.058,110.435 274.891,112.102 276.5,113.5C 275.596,114.209 275.263,115.209 275.5,116.5C 283.357,116.98 291.191,117.647 299,118.5C 299.945,118.095 300.612,117.428 301,116.5C 301.741,117.641 302.575,117.641 303.5,116.5C 304.5,117.167 305.5,117.833 306.5,118.5C 306.296,117.471 306.796,116.471 308,115.5C 310.109,116.035 310.609,117.035 309.5,118.5C 310.77,119.288 311.77,120.288 312.5,121.5C 293.342,121.059 275.009,120.725 257.5,120.5C 238.631,119.766 219.631,119.766 200.5,120.5C 181.385,120.914 162.052,120.914 142.5,120.5C 142.783,119.711 143.283,119.044 144,118.5C 145,118.833 146,119.167 147,119.5C 147.5,119 148,118.5 148.5,118C 154.083,117.809 159.583,117.309 165,116.5C 167.442,116.65 169.942,116.984 172.5,117.5C 174.707,117.109 176.04,116.442 176.5,115.5C 180.898,110.382 185.065,105.048 189,99.5C 189.483,95.5328 190.816,91.8662 193,88.5C 196.397,86.4421 198.063,83.4421 198,79.5C 201.228,76.6937 204.228,73.6937 207,70.5C 207.614,68.1214 207.947,65.788 208,63.5C 206.667,63.5 205.333,63.5 204,63.5C 203.075,62.9535 202.242,62.2868 201.5,61.5C 204.814,60.8692 208.314,60.8692 212,61.5C 212.333,60.8333 212.667,60.1667 213,59.5C 213.667,62.1667 214.333,62.1667 215,59.5C 216.063,60.4378 217.23,61.4378 218.5,62.5C 219.696,62.1543 219.696,61.6543 218.5,61C 219.094,60.5357 219.761,60.369 220.5,60.5C 221.694,61.2719 222.694,62.2719 223.5,63.5C 218.882,62.3087 216.382,63.9754 216,68.5C 214.078,72.6633 211.412,76.33 208,79.5C 205.726,83.7136 203.726,88.0469 202,92.5C 195.374,98.8422 191.208,105.676 189.5,113C 189.833,113.333 190.167,113.667 190.5,114C 186.5,114.333 182.5,114.667 178.5,115C 179.667,115.5 180.5,116.333 181,117.5C 181.667,114.833 182.333,114.833 183,117.5C 183.308,116.692 183.808,116.025 184.5,115.5C 185.5,116.833 186.5,116.833 187.5,115.5C 188.541,117.991 189.374,117.991 190,115.5C 190.333,116.167 190.667,116.833 191,117.5C 193.769,117.646 196.769,117.313 200,116.5C 215.418,118.479 230.418,118.479 245,116.5C 248.542,117.318 252.376,117.485 256.5,117C 257.337,115.989 257.67,114.822 257.5,113.5C 258.873,113.657 260.207,113.49 261.5,113C 260.921,108.311 262.755,104.478 267,101.5C 272.484,90.3599 279.151,80.0265 287,70.5C 287.557,68.3853 288.391,66.3853 289.5,64.5C 287.604,63.5344 285.604,63.2011 283.5,63.5C 286.228,62.7948 289.061,62.1281 292,61.5C 293.613,62.6223 294.78,62.1223 295.5,60C 290.709,59.5172 286.042,58.3505 281.5,56.5 Z"/></g>
<g><path style="opacity:1" fill="#170000" d="M 283.5,63.5 C 285.604,63.2011 287.604,63.5344 289.5,64.5C 288.391,66.3853 287.557,68.3853 287,70.5C 279.151,80.0265 272.484,90.3599 267,101.5C 262.755,104.478 260.921,108.311 261.5,113C 260.207,113.49 258.873,113.657 257.5,113.5C 257.67,114.822 257.337,115.989 256.5,117C 252.376,117.485 248.542,117.318 245,116.5C 230.418,118.479 215.418,118.479 200,116.5C 196.769,117.313 193.769,117.646 191,117.5C 190.667,116.833 190.333,116.167 190,115.5C 189.374,117.991 188.541,117.991 187.5,115.5C 186.5,116.833 185.5,116.833 184.5,115.5C 183.808,116.025 183.308,116.692 183,117.5C 182.333,114.833 181.667,114.833 181,117.5C 180.5,116.333 179.667,115.5 178.5,115C 182.5,114.667 186.5,114.333 190.5,114C 190.167,113.667 189.833,113.333 189.5,113C 191.208,105.676 195.374,98.8422 202,92.5C 203.726,88.0469 205.726,83.7136 208,79.5C 211.412,76.33 214.078,72.6633 216,68.5C 216.382,63.9754 218.882,62.3087 223.5,63.5C 226.187,63.3359 228.854,63.5026 231.5,64C 226.922,68.9836 223.755,74.8169 222,81.5C 217.546,86.6282 213.879,92.2949 211,98.5C 206.669,101.336 204.169,105.336 203.5,110.5C 204.612,111.265 205.279,112.265 205.5,113.5C 203.91,113.898 201.91,114.398 199.5,115C 218.167,115.667 236.833,115.667 255.5,115C 250.981,114.825 246.647,114.325 242.5,113.5C 243.99,111.72 245.99,111.054 248.5,111.5C 248.336,108.813 248.503,106.146 249,103.5C 251,101.833 253,100.167 255,98.5C 259.327,91.8524 263.16,84.8524 266.5,77.5C 268.422,76.289 270.255,74.9557 272,73.5C 272.305,71.4432 272.305,69.4432 272,67.5C 274.17,63.7401 277.17,62.7401 281,64.5C 281.342,62.3808 282.175,62.0474 283.5,63.5 Z"/></g>
<g><path style="opacity:1" fill="#040000" d="M 242.5,113.5 C 246.647,114.325 250.981,114.825 255.5,115C 236.833,115.667 218.167,115.667 199.5,115C 201.91,114.398 203.91,113.898 205.5,113.5C 206.833,113.5 208.167,113.5 209.5,113.5C 210.911,110.325 212.078,106.991 213,103.5C 215.973,100.527 218.973,97.527 222,94.5C 224.964,88.6646 227.631,82.6646 230,76.5C 232.54,74.2953 234.707,71.7953 236.5,69C 235.701,67.2513 236.368,65.918 238.5,65C 236.926,64.647 235.259,63.9804 233.5,63C 246.846,62.1673 260.179,62.334 273.5,63.5C 271.805,63.841 269.805,64.5076 267.5,65.5C 266.472,67.3615 264.972,68.6948 263,69.5C 261.451,76.1446 258.118,81.8113 253,86.5C 253.225,89.8248 251.892,92.1581 249,93.5C 246.66,98.8365 243.326,103.503 239,107.5C 236.143,111.813 237.309,113.813 242.5,113.5 Z"/></g>
<g><path style="opacity:1" fill="#d30a08" d="M 414.5,117.5 C 417.781,117.483 419.614,119.483 420,123.5C 420.671,122.748 421.504,122.414 422.5,122.5C 424.39,130.108 426.223,137.774 428,145.5C 428.5,157.495 428.667,169.495 428.5,181.5C 426.904,183.832 425.738,186.499 425,189.5C 424.667,188.833 424.333,188.167 424,187.5C 420.795,202.077 416.295,216.244 410.5,230C 410.57,230.765 410.903,231.265 411.5,231.5C 411.5,231.833 411.5,232.167 411.5,232.5C 409.669,231.948 408.003,231.948 406.5,232.5C 403.223,238.274 399.057,243.274 394,247.5C 392.458,249.565 392.291,251.565 393.5,253.5C 392.71,254.401 391.71,255.068 390.5,255.5C 388.217,256.708 385.217,257.874 381.5,259C 379.19,259.497 376.857,259.663 374.5,259.5C 393.576,250.032 406.076,235.032 412,214.5C 415.207,212.295 417.207,209.295 418,205.5C 422.512,183.687 423.678,161.687 421.5,139.5C 420.983,135.778 420.15,132.112 419,128.5C 418.329,127.748 417.496,127.414 416.5,127.5C 416.516,125.371 415.849,123.538 414.5,122C 413.216,121.316 412.049,121.483 411,122.5C 410.024,128.448 407.024,133.114 402,136.5C 399.726,140.714 397.726,145.047 396,149.5C 392.03,153.413 389.03,158.08 387,163.5C 379.319,173.785 372.653,184.785 367,196.5C 364.256,198.984 362.256,201.984 361,205.5C 359.622,207.213 357.955,208.547 356,209.5C 355.504,211.035 355.67,212.535 356.5,214C 354.126,219.043 350.959,223.543 347,227.5C 342.48,237 336.813,245.667 330,253.5C 329.667,255.167 329.333,256.833 329,258.5C 322.831,269.309 316.664,279.309 310.5,288.5C 310.294,283.281 312.127,278.947 316,275.5C 318.073,269.093 321.406,263.427 326,258.5C 328.402,251.756 332.069,245.756 337,240.5C 341.174,230.808 346.841,222.141 354,214.5C 354.241,211.711 354.908,209.044 356,206.5C 359.54,204.085 361.54,200.752 362,196.5C 367.475,190.772 371.475,184.105 374,176.5C 380.014,169.14 385.014,161.14 389,152.5C 391,150.5 393,148.5 395,146.5C 396.196,141.777 398.196,137.443 401,133.5C 405.475,129.439 408.475,124.439 410,118.5C 411.603,118.129 413.103,117.795 414.5,117.5 Z"/></g>
<g><path style="opacity:0.004" fill="#030000" d="M 257.5,120.5 C 238.5,121.833 219.5,121.833 200.5,120.5C 219.631,119.766 238.631,119.766 257.5,120.5 Z"/></g>
<g><path style="opacity:1" fill="#db0000" d="M 416.5,127.5 C 415.178,127.33 414.011,127.663 413,128.5C 412.64,130.608 411.973,132.608 411,134.5C 399.061,154.101 386.728,173.435 374,192.5C 371.623,199.313 367.956,205.313 363,210.5C 358.519,220.3 352.853,229.3 346,237.5C 343.703,242.094 341.37,246.761 339,251.5C 335.488,255.731 332.155,260.064 329,264.5C 327.981,271.54 324.647,277.207 319,281.5C 313.386,290.295 312.219,299.628 315.5,309.5C 314.609,308.89 313.609,308.557 312.5,308.5C 311.833,308.5 311.5,308.167 311.5,307.5C 312.649,307.209 313.316,306.376 313.5,305C 311.955,300.749 310.288,296.582 308.5,292.5C 309.167,292.167 309.833,291.833 310.5,291.5C 309.347,290.313 309.347,289.313 310.5,288.5C 316.664,279.309 322.831,269.309 329,258.5C 329.333,256.833 329.667,255.167 330,253.5C 336.813,245.667 342.48,237 347,227.5C 350.959,223.543 354.126,219.043 356.5,214C 355.67,212.535 355.504,211.035 356,209.5C 357.955,208.547 359.622,207.213 361,205.5C 362.256,201.984 364.256,198.984 367,196.5C 372.653,184.785 379.319,173.785 387,163.5C 389.03,158.08 392.03,153.413 396,149.5C 397.726,145.047 399.726,140.714 402,136.5C 407.024,133.114 410.024,128.448 411,122.5C 412.049,121.483 413.216,121.316 414.5,122C 415.849,123.538 416.516,125.371 416.5,127.5 Z"/></g>
<g><path style="opacity:1" fill="#e70000" d="M 416.5,127.5 C 417.496,127.414 418.329,127.748 419,128.5C 420.15,132.112 420.983,135.778 421.5,139.5C 420.4,137.723 419.566,135.723 419,133.5C 404.846,153.119 392.179,173.786 381,195.5C 373.553,203.397 367.887,212.397 364,222.5C 359.413,227.914 355.746,233.914 353,240.5C 346.502,246.645 341.836,253.978 339,262.5C 331.929,274.302 324.596,285.969 317,297.5C 317.144,303.77 318.977,309.437 322.5,314.5C 322.31,318.032 322.977,321.365 324.5,324.5C 323.038,323.199 321.704,321.699 320.5,320C 318.922,316.348 317.255,312.848 315.5,309.5C 312.219,299.628 313.386,290.295 319,281.5C 324.647,277.207 327.981,271.54 329,264.5C 332.155,260.064 335.488,255.731 339,251.5C 341.37,246.761 343.703,242.094 346,237.5C 352.853,229.3 358.519,220.3 363,210.5C 367.956,205.313 371.623,199.313 374,192.5C 386.728,173.435 399.061,154.101 411,134.5C 411.973,132.608 412.64,130.608 413,128.5C 414.011,127.663 415.178,127.33 416.5,127.5 Z"/></g>
<g><path style="opacity:0.999" fill="#3c0000" d="M 135.5,135.5 C 136.774,136.189 136.774,137.023 135.5,138C 137.303,138.637 138.636,139.803 139.5,141.5C 139.866,144.436 139.366,147.436 138,150.5C 136.249,152.49 135.249,154.823 135,157.5C 130.538,162.036 127.538,167.369 126,173.5C 121.693,176.462 119.026,180.462 118,185.5C 115.997,182.197 113.331,180.864 110,181.5C 110.422,178.902 110.422,176.236 110,173.5C 108.092,176.332 107.259,175.999 107.5,172.5C 108.397,171.402 109.23,171.402 110,172.5C 110.333,171.5 110.667,170.5 111,169.5C 112.154,171.957 113.488,171.957 115,169.5C 118.318,162.915 121.651,156.249 125,149.5C 126.667,148.5 128.333,147.5 130,146.5C 131.393,142.522 133.226,138.855 135.5,135.5 Z"/></g>
<g><path style="opacity:1" fill="#2c0202" d="M 151.5,155.5 C 152.312,157.945 153.312,160.278 154.5,162.5C 153.735,162.923 152.902,163.257 152,163.5C 151.749,162.014 150.415,161.014 148,160.5C 145.941,166.957 142.607,172.624 138,177.5C 137.846,181.098 136.846,184.431 135,187.5C 132.256,189.984 130.256,192.984 129,196.5C 128,197.167 127,197.833 126,198.5C 125.749,200.433 125.249,202.266 124.5,204C 126.558,205.808 126.892,207.975 125.5,210.5C 124.761,210.369 124.094,210.536 123.5,211C 124.167,212.333 125.167,213.333 126.5,214C 125.167,214.667 125.167,215.333 126.5,216C 125.552,216.483 124.552,216.649 123.5,216.5C 118.486,205.159 113.486,193.826 108.5,182.5C 110.086,183.413 111.586,183.413 113,182.5C 113.617,183.449 113.451,184.282 112.5,185C 114.5,186.324 116.167,187.991 117.5,190C 116.672,190.915 115.672,191.581 114.5,192C 115.167,192.333 115.833,192.667 116.5,193C 115.216,194.297 115.383,195.464 117,196.5C 118.522,194.978 120.022,193.478 121.5,192C 119.944,186.89 121.777,182.723 127,179.5C 128.914,175.911 131.248,172.578 134,169.5C 134.346,167.782 134.846,166.115 135.5,164.5C 138.524,161.473 141.191,158.14 143.5,154.5C 146.352,155.29 148.519,156.956 150,159.5C 150.21,157.942 150.71,156.609 151.5,155.5 Z"/></g>
<g><path style="opacity:0.09" fill="#480f0d" d="M 356.5,152.5 C 357.85,153.483 358.85,154.816 359.5,156.5C 360.808,160.315 360.808,163.981 359.5,167.5C 359.125,162.374 358.125,157.374 356.5,152.5 Z"/></g>
<g><path style="opacity:0.999" fill="#230202" d="M 154.5,162.5 C 161.94,178.514 168.94,194.847 175.5,211.5C 174.883,211.611 174.383,211.944 174,212.5C 172.853,208.683 170.353,206.349 166.5,205.5C 166.918,204.778 167.584,204.278 168.5,204C 166.887,201.772 166.22,199.272 166.5,196.5C 164.62,196.771 163.287,196.104 162.5,194.5C 163.622,192.712 163.789,190.712 163,188.5C 160.274,183.21 157.607,177.877 155,172.5C 154.751,173.624 154.251,174.624 153.5,175.5C 151.576,175.106 149.743,175.773 148,177.5C 143.523,186.655 138.189,195.321 132,203.5C 131.227,206.211 130.06,208.711 128.5,211C 129.209,214.634 128.542,214.967 126.5,212C 127.712,210.893 127.379,210.393 125.5,210.5C 126.892,207.975 126.558,205.808 124.5,204C 125.249,202.266 125.749,200.433 126,198.5C 127,197.833 128,197.167 129,196.5C 130.256,192.984 132.256,189.984 135,187.5C 136.846,184.431 137.846,181.098 138,177.5C 142.607,172.624 145.941,166.957 148,160.5C 150.415,161.014 151.749,162.014 152,163.5C 152.902,163.257 153.735,162.923 154.5,162.5 Z"/></g>
<g><path style="opacity:0.533" fill="#380b08" d="M 95.5,151.5 C 96.7498,151.577 97.5831,152.244 98,153.5C 99.6665,152.66 99.8331,153.16 98.5,155C 101.56,159.045 104.56,163.045 107.5,167C 106.672,167.915 105.672,168.581 104.5,169C 105.774,169.977 105.774,170.811 104.5,171.5C 101.506,164.86 98.506,158.193 95.5,151.5 Z"/></g>
<g><path style="opacity:0.999" fill="#150100" d="M 162.5,194.5 C 158.808,194.695 156.974,196.695 157,200.5C 151.879,205.144 148.546,210.81 147,217.5C 142.847,220.556 140.18,224.556 139,229.5C 137.992,229.982 136.825,230.148 135.5,230C 137.767,232.728 138.434,235.728 137.5,239C 138.5,240 139.5,241 140.5,242C 139.833,242.333 139.167,242.667 138.5,243C 140.468,244.544 142.635,245.711 145,246.5C 145.494,248.134 145.66,249.801 145.5,251.5C 147.144,251.714 148.644,251.38 150,250.5C 151.691,244.427 154.691,239.093 159,234.5C 159.333,233.167 159.667,231.833 160,230.5C 162.958,227.076 165.458,223.409 167.5,219.5C 168.964,214.616 168.63,209.949 166.5,205.5C 170.353,206.349 172.853,208.683 174,212.5C 174.383,211.944 174.883,211.611 175.5,211.5C 175.833,212.167 176.167,212.833 176.5,213.5C 175.448,213.351 174.448,213.517 173.5,214C 174.833,214.667 174.833,215.333 173.5,216C 176.239,217.026 178.572,218.526 180.5,220.5C 179.448,220.351 178.448,220.517 177.5,221C 181.362,221.616 185.029,221.949 188.5,222C 191.722,223.99 192.222,226.49 190,229.5C 186.499,235.685 182.166,241.351 177,246.5C 174.647,253.927 170.647,260.26 165,265.5C 164.453,272.019 161.287,276.686 155.5,279.5C 152.56,278.51 150.727,276.51 150,273.5C 149.82,275.488 149.986,277.488 150.5,279.5C 141.096,258.733 132.096,237.733 123.5,216.5C 124.552,216.649 125.552,216.483 126.5,216C 125.167,215.333 125.167,214.667 126.5,214C 125.167,213.333 124.167,212.333 123.5,211C 124.094,210.536 124.761,210.369 125.5,210.5C 127.379,210.393 127.712,210.893 126.5,212C 128.542,214.967 129.209,214.634 128.5,211C 130.06,208.711 131.227,206.211 132,203.5C 138.189,195.321 143.523,186.655 148,177.5C 149.743,175.773 151.576,175.106 153.5,175.5C 154.251,174.624 154.751,173.624 155,172.5C 157.607,177.877 160.274,183.21 163,188.5C 163.789,190.712 163.622,192.712 162.5,194.5 Z"/></g>
<g><path style="opacity:0.292" fill="#bf1917" d="M 428.5,181.5 C 426.319,192.306 423.819,202.973 421,213.5C 418.443,219.872 415.276,225.872 411.5,231.5C 410.903,231.265 410.57,230.765 410.5,230C 416.295,216.244 420.795,202.077 424,187.5C 424.333,188.167 424.667,188.833 425,189.5C 425.738,186.499 426.904,183.832 428.5,181.5 Z"/></g>
<g><path style="opacity:1" fill="#040000" d="M 162.5,194.5 C 163.287,196.104 164.62,196.771 166.5,196.5C 166.22,199.272 166.887,201.772 168.5,204C 167.584,204.278 166.918,204.778 166.5,205.5C 168.63,209.949 168.964,214.616 167.5,219.5C 165.458,223.409 162.958,227.076 160,230.5C 159.667,231.833 159.333,233.167 159,234.5C 154.691,239.093 151.691,244.427 150,250.5C 148.644,251.38 147.144,251.714 145.5,251.5C 145.66,249.801 145.494,248.134 145,246.5C 142.635,245.711 140.468,244.544 138.5,243C 139.167,242.667 139.833,242.333 140.5,242C 139.5,241 138.5,240 137.5,239C 138.434,235.728 137.767,232.728 135.5,230C 136.825,230.148 137.992,229.982 139,229.5C 140.18,224.556 142.847,220.556 147,217.5C 148.546,210.81 151.879,205.144 157,200.5C 156.974,196.695 158.808,194.695 162.5,194.5 Z"/></g>
<g><path style="opacity:0.816" fill="#a31010" d="M 356.5,186.5 C 356.833,187.833 357.167,189.167 357.5,190.5C 356.758,192.426 355.758,194.259 354.5,196C 354.833,196.333 355.167,196.667 355.5,197C 354.531,198.758 353.364,199.258 352,198.5C 350.045,202.477 347.211,205.477 343.5,207.5C 341.974,208.105 340.974,209.271 340.5,211C 339.584,211.374 338.75,211.874 338,212.5C 337.601,212.272 337.435,211.938 337.5,211.5C 337.925,208.881 338.925,206.547 340.5,204.5C 346.919,199.418 352.252,193.418 356.5,186.5 Z"/></g>
<g><path style="opacity:0.004" fill="#000000" d="M 177.5,214.5 C 220.833,214.5 264.167,214.5 307.5,214.5C 291.342,215.496 275.009,215.83 258.5,215.5C 243.993,215.594 229.327,215.594 214.5,215.5C 201.989,215.829 189.655,215.495 177.5,214.5 Z"/></g>
<g><path style="opacity:0.989" fill="#510203" d="M 214.5,215.5 C 229.327,215.594 243.993,215.594 258.5,215.5C 262.1,216.953 261.767,218.453 257.5,220C 259.202,221.718 261.035,221.885 263,220.5C 263.5,221 264,221.5 264.5,222C 261.162,222.594 258.162,223.26 255.5,224C 255.833,224.333 256.167,224.667 256.5,225C 255.611,228.376 253.445,230.543 250,231.5C 249.587,234.232 248.92,236.899 248,239.5C 244.219,245.61 240.885,251.943 238,258.5C 236.255,259.956 234.422,261.289 232.5,262.5C 228.885,269.067 230.885,272.234 238.5,272C 237.062,272.219 235.729,272.719 234.5,273.5C 234.667,273.833 234.833,274.167 235,274.5C 236.333,273.167 237.667,273.167 239,274.5C 239.333,273.833 239.667,273.167 240,272.5C 240.84,275.464 241.84,275.797 243,273.5C 243.354,275.807 244.354,276.141 246,274.5C 248.039,275.985 250.206,276.819 252.5,277C 249.964,277.186 247.631,277.686 245.5,278.5C 235.167,278.5 224.833,278.5 214.5,278.5C 214.631,277.761 214.464,277.094 214,276.5C 213.31,277.738 212.81,277.738 212.5,276.5C 213.658,275.05 213.158,274.05 211,273.5C 209.273,274.374 207.44,274.207 205.5,273C 208.426,272.782 211.26,272.282 214,271.5C 214.914,272.654 215.747,272.487 216.5,271C 215.483,269.951 215.316,268.784 216,267.5C 217.667,265.5 219.333,263.5 221,261.5C 223.333,256.833 225.667,252.167 228,247.5C 232.985,243.107 236.318,237.774 238,231.5C 241.031,229.622 243.031,226.955 244,223.5C 245.503,223.835 246.836,223.835 248,223.5C 249.252,221.999 250.252,220.332 251,218.5C 251.333,218.833 251.667,219.167 252,219.5C 253.067,218.809 254.234,218.309 255.5,218C 242.838,217.5 230.171,217.333 217.5,217.5C 215.473,217.662 213.473,217.495 211.5,217C 212.737,216.768 213.737,216.268 214.5,215.5 Z"/></g>
<g><path style="opacity:0.997" fill="#8d0202" d="M 317.5,219.5 C 312.833,224.961 308.5,230.794 304.5,237C 300.05,248.08 294.217,258.247 287,267.5C 286.149,270.053 286.482,272.386 288,274.5C 290.333,274.167 292.667,273.833 295,273.5C 298.303,274.235 300.803,276.068 302.5,279C 301.288,280.107 301.621,280.607 303.5,280.5C 302.71,281.401 301.71,282.068 300.5,282.5C 299.655,281.329 298.989,279.995 298.5,278.5C 298.217,277.711 297.717,277.044 297,276.5C 292.921,277.629 288.755,277.796 284.5,277C 283.874,276.25 283.374,275.416 283,274.5C 282.23,275.598 281.397,275.598 280.5,274.5C 279.833,273.833 279.167,273.167 278.5,272.5C 277.727,267.762 279.56,263.429 284,259.5C 287.258,250.638 292.258,242.971 299,236.5C 300.941,232.952 302.607,229.286 304,225.5C 307.776,221.692 312.276,219.692 317.5,219.5 Z"/></g>
<g><path style="opacity:0.999" fill="#230101" d="M 164.5,301.5 C 164.631,302.239 164.464,302.906 164,303.5C 163.23,302.402 162.397,302.402 161.5,303.5C 160.21,302.942 159.377,301.942 159,300.5C 156.618,293.293 153.785,286.293 150.5,279.5C 149.986,277.488 149.82,275.488 150,273.5C 150.727,276.51 152.56,278.51 155.5,279.5C 161.287,276.686 164.453,272.019 165,265.5C 170.647,260.26 174.647,253.927 177,246.5C 182.166,241.351 186.499,235.685 190,229.5C 192.222,226.49 191.722,223.99 188.5,222C 185.029,221.949 181.362,221.616 177.5,221C 178.448,220.517 179.448,220.351 180.5,220.5C 186.063,219.39 191.73,219.224 197.5,220C 198.833,220.667 198.833,221.333 197.5,222C 200.167,222.667 200.167,223.333 197.5,224C 200.325,227.559 199.825,230.726 196,233.5C 196.011,237.826 194.011,240.826 190,242.5C 189.319,247.188 186.985,250.855 183,253.5C 182.667,254.833 182.333,256.167 182,257.5C 178.664,262.206 175.331,266.872 172,271.5C 171.751,274.177 170.751,276.51 169,278.5C 166.173,280.494 163.673,282.828 161.5,285.5C 161.833,286.167 162.167,286.833 162.5,287.5C 160.266,289.564 158.933,291.731 158.5,294C 160.886,294.284 161.552,295.284 160.5,297C 162.609,297.907 163.942,299.407 164.5,301.5 Z"/></g>
<g><path style="opacity:1" fill="#a30001" d="M 343.5,207.5 C 341.995,211.681 339.328,215.014 335.5,217.5C 334.777,220.07 333.61,222.403 332,224.5C 326.826,228.18 323.826,233.18 323,239.5C 317.418,244.918 313.418,251.251 311,258.5C 307.037,262.121 303.871,266.287 301.5,271C 304.613,273.957 305.28,277.123 303.5,280.5C 301.621,280.607 301.288,280.107 302.5,279C 300.803,276.068 298.303,274.235 295,273.5C 292.667,273.833 290.333,274.167 288,274.5C 286.482,272.386 286.149,270.053 287,267.5C 294.217,258.247 300.05,248.08 304.5,237C 308.5,230.794 312.833,224.961 317.5,219.5C 319.927,219.477 322.26,218.977 324.5,218C 325.966,215.008 328.132,214.174 331,215.5C 333.069,213.915 335.236,212.581 337.5,211.5C 337.435,211.938 337.601,212.272 338,212.5C 338.75,211.874 339.584,211.374 340.5,211C 340.974,209.271 341.974,208.105 343.5,207.5 Z"/></g>
<g><path style="opacity:1" fill="#360100" d="M 232.5,220.5 C 232.611,221.117 232.944,221.617 233.5,222C 231.752,222.08 230.085,222.913 228.5,224.5C 225.721,227.62 222.888,230.62 220,233.5C 219.08,236.101 218.413,238.768 218,241.5C 211.828,245.513 208.495,251.179 208,258.5C 200.473,264.66 195.473,272.327 193,281.5C 189.205,285.976 186.205,290.976 184,296.5C 178.759,301.82 174.926,307.987 172.5,315C 173.167,316.667 173.833,318.333 174.5,320C 173.159,321.295 171.826,321.795 170.5,321.5C 171.052,324.779 172.719,327.279 175.5,329C 174.167,330 174.167,331 175.5,332C 174.956,332.717 174.289,333.217 173.5,333.5C 170.569,325.634 167.069,317.968 163,310.5C 162.338,308.187 161.838,305.854 161.5,303.5C 162.397,302.402 163.23,302.402 164,303.5C 164.464,302.906 164.631,302.239 164.5,301.5C 165.738,301.19 165.738,300.69 164.5,300C 165.825,300.148 166.992,299.982 168,299.5C 171.494,292.308 175.494,285.308 180,278.5C 181.684,276.649 183.517,274.982 185.5,273.5C 186.09,268.32 188.257,263.986 192,260.5C 192.681,255.812 195.015,252.145 199,249.5C 201.906,244.69 204.573,239.69 207,234.5C 208.708,232.457 210.708,230.79 213,229.5C 213.342,227.182 212.842,225.015 211.5,223C 218.255,220.847 225.255,220.013 232.5,220.5 Z"/></g>
<g><path style="opacity:1" fill="#670000" d="M 291.5,221.5 C 289.107,222.21 286.607,222.877 284,223.5C 282.883,223.335 281.716,223.002 280.5,222.5C 278.182,223.949 276.182,225.782 274.5,228C 275.5,229 276.5,230 277.5,231C 273.307,233.835 270.807,237.669 270,242.5C 268.333,244.167 266.667,245.833 265,247.5C 262.623,253.948 258.957,259.614 254,264.5C 251.983,267.127 252.15,269.627 254.5,272C 253.648,273.728 252.648,273.895 251.5,272.5C 247.583,273.057 244.25,271.557 241.5,268C 244.027,264.139 247.194,260.973 251,258.5C 251.552,253.334 253.719,249.001 257.5,245.5C 257.763,241.298 259.763,238.298 263.5,236.5C 264.736,232.209 266.57,228.209 269,224.5C 271.055,224.848 273.055,224.181 275,222.5C 276.566,223.061 277.899,222.394 279,220.5C 283.429,221.362 287.596,221.695 291.5,221.5 Z"/></g>
<g><path style="opacity:1" fill="#7e0303" d="M 340.5,204.5 C 338.925,206.547 337.925,208.881 337.5,211.5C 335.236,212.581 333.069,213.915 331,215.5C 328.132,214.174 325.966,215.008 324.5,218C 322.26,218.977 319.927,219.477 317.5,219.5C 312.276,219.692 307.776,221.692 304,225.5C 302.607,229.286 300.941,232.952 299,236.5C 292.258,242.971 287.258,250.638 284,259.5C 279.56,263.429 277.727,267.762 278.5,272.5C 277.883,272.611 277.383,272.944 277,273.5C 273.963,272.291 270.796,271.457 267.5,271C 266.643,270.311 265.977,269.478 265.5,268.5C 267.221,265.703 269.387,263.369 272,261.5C 271.377,259.015 272.377,257.015 275,255.5C 276.444,248.771 279.777,243.105 285,238.5C 286.63,234.051 288.463,229.718 290.5,225.5C 293.038,224.743 293.705,223.41 292.5,221.5C 293.622,220.053 295.122,219.053 297,218.5C 299.761,217.36 302.594,217.36 305.5,218.5C 309.162,217.73 312.495,216.397 315.5,214.5C 324.309,212.402 332.642,209.068 340.5,204.5 Z"/></g>
<g><path style="opacity:1" fill="#600304" d="M 307.5,214.5 C 310.167,214.5 312.833,214.5 315.5,214.5C 312.495,216.397 309.162,217.73 305.5,218.5C 302.594,217.36 299.761,217.36 297,218.5C 295.122,219.053 293.622,220.053 292.5,221.5C 292.167,221.5 291.833,221.5 291.5,221.5C 287.596,221.695 283.429,221.362 279,220.5C 277.899,222.394 276.566,223.061 275,222.5C 273.055,224.181 271.055,224.848 269,224.5C 266.57,228.209 264.736,232.209 263.5,236.5C 259.763,238.298 257.763,241.298 257.5,245.5C 253.719,249.001 251.552,253.334 251,258.5C 247.194,260.973 244.027,264.139 241.5,268C 244.25,271.557 247.583,273.057 251.5,272.5C 251.082,273.222 250.416,273.722 249.5,274C 256.747,274.185 263.913,274.685 271,275.5C 274.153,275.44 277.32,275.107 280.5,274.5C 281.397,275.598 282.23,275.598 283,274.5C 283.374,275.416 283.874,276.25 284.5,277C 288.755,277.796 292.921,277.629 297,276.5C 297.717,277.044 298.217,277.711 298.5,278.5C 280.833,278.5 263.167,278.5 245.5,278.5C 247.631,277.686 249.964,277.186 252.5,277C 250.206,276.819 248.039,275.985 246,274.5C 244.354,276.141 243.354,275.807 243,273.5C 241.84,275.797 240.84,275.464 240,272.5C 239.667,273.167 239.333,273.833 239,274.5C 237.667,273.167 236.333,273.167 235,274.5C 234.833,274.167 234.667,273.833 234.5,273.5C 235.729,272.719 237.062,272.219 238.5,272C 230.885,272.234 228.885,269.067 232.5,262.5C 234.422,261.289 236.255,259.956 238,258.5C 240.885,251.943 244.219,245.61 248,239.5C 248.92,236.899 249.587,234.232 250,231.5C 253.445,230.543 255.611,228.376 256.5,225C 256.167,224.667 255.833,224.333 255.5,224C 258.162,223.26 261.162,222.594 264.5,222C 264,221.5 263.5,221 263,220.5C 261.035,221.885 259.202,221.718 257.5,220C 261.767,218.453 262.1,216.953 258.5,215.5C 275.009,215.83 291.342,215.496 307.5,214.5 Z"/></g>
<g><path style="opacity:1" fill="#2d0101" d="M 176.5,213.5 C 176.5,214.167 176.833,214.5 177.5,214.5C 189.655,215.495 201.989,215.829 214.5,215.5C 213.737,216.268 212.737,216.768 211.5,217C 213.473,217.495 215.473,217.662 217.5,217.5C 217.369,218.239 217.536,218.906 218,219.5C 222.125,218.792 226.125,218.459 230,218.5C 230.995,219.066 231.828,219.733 232.5,220.5C 225.255,220.013 218.255,220.847 211.5,223C 212.842,225.015 213.342,227.182 213,229.5C 210.708,230.79 208.708,232.457 207,234.5C 204.573,239.69 201.906,244.69 199,249.5C 195.015,252.145 192.681,255.812 192,260.5C 188.257,263.986 186.09,268.32 185.5,273.5C 183.517,274.982 181.684,276.649 180,278.5C 175.494,285.308 171.494,292.308 168,299.5C 166.992,299.982 165.825,300.148 164.5,300C 165.738,300.69 165.738,301.19 164.5,301.5C 163.942,299.407 162.609,297.907 160.5,297C 161.552,295.284 160.886,294.284 158.5,294C 158.933,291.731 160.266,289.564 162.5,287.5C 162.167,286.833 161.833,286.167 161.5,285.5C 163.673,282.828 166.173,280.494 169,278.5C 170.751,276.51 171.751,274.177 172,271.5C 175.331,266.872 178.664,262.206 182,257.5C 182.333,256.167 182.667,254.833 183,253.5C 186.985,250.855 189.319,247.188 190,242.5C 194.011,240.826 196.011,237.826 196,233.5C 199.825,230.726 200.325,227.559 197.5,224C 200.167,223.333 200.167,222.667 197.5,222C 198.833,221.333 198.833,220.667 197.5,220C 191.73,219.224 186.063,219.39 180.5,220.5C 178.572,218.526 176.239,217.026 173.5,216C 174.833,215.333 174.833,214.667 173.5,214C 174.448,213.517 175.448,213.351 176.5,213.5 Z"/></g>
<g><path style="opacity:0.997" fill="#710000" d="M 291.5,221.5 C 291.833,221.5 292.167,221.5 292.5,221.5C 293.705,223.41 293.038,224.743 290.5,225.5C 288.463,229.718 286.63,234.051 285,238.5C 279.777,243.105 276.444,248.771 275,255.5C 272.377,257.015 271.377,259.015 272,261.5C 269.387,263.369 267.221,265.703 265.5,268.5C 265.977,269.478 266.643,270.311 267.5,271C 270.796,271.457 273.963,272.291 277,273.5C 277.383,272.944 277.883,272.611 278.5,272.5C 279.167,273.167 279.833,273.833 280.5,274.5C 277.32,275.107 274.153,275.44 271,275.5C 263.913,274.685 256.747,274.185 249.5,274C 250.416,273.722 251.082,273.222 251.5,272.5C 252.648,273.895 253.648,273.728 254.5,272C 252.15,269.627 251.983,267.127 254,264.5C 258.957,259.614 262.623,253.948 265,247.5C 266.667,245.833 268.333,244.167 270,242.5C 270.807,237.669 273.307,233.835 277.5,231C 276.5,230 275.5,229 274.5,228C 276.182,225.782 278.182,223.949 280.5,222.5C 281.716,223.002 282.883,223.335 284,223.5C 286.607,222.877 289.107,222.21 291.5,221.5 Z"/></g>
<g><path style="opacity:0.388" fill="#c31a17" d="M 411.5,232.5 C 406.969,240.703 400.969,247.703 393.5,253.5C 392.291,251.565 392.458,249.565 394,247.5C 399.057,243.274 403.223,238.274 406.5,232.5C 408.003,231.948 409.669,231.948 411.5,232.5 Z"/></g>
<g><path style="opacity:0.668" fill="#ca1614" d="M 390.5,255.5 C 387.283,258.88 383.616,261.714 379.5,264C 369.568,268.257 359.235,270.757 348.5,271.5C 351.369,278.774 354.035,286.107 356.5,293.5C 355.761,293.631 355.094,293.464 354.5,293C 352.085,290.154 349.751,287.32 347.5,284.5C 345.818,280.839 343.985,277.173 342,273.5C 341.104,270.975 341.604,268.808 343.5,267C 353.014,266.57 362.348,265.07 371.5,262.5C 373.175,262.132 374.175,261.132 374.5,259.5C 376.857,259.663 379.19,259.497 381.5,259C 385.217,257.874 388.217,256.708 390.5,255.5 Z"/></g>
<g><path style="opacity:1" fill="#fc0000" d="M 363.5,336.5 C 358.476,342.746 354.476,349.579 351.5,357C 347.514,357.499 343.514,357.666 339.5,357.5C 337.016,350.95 334.516,344.283 332,337.5C 330.186,333.864 328.02,330.531 325.5,327.5C 324.89,326.609 324.557,325.609 324.5,324.5C 322.977,321.365 322.31,318.032 322.5,314.5C 321.36,310.229 320.86,305.895 321,301.5C 326.2,296.596 329.533,290.596 331,283.5C 333.796,279.092 337.296,278.426 341.5,281.5C 343.384,285.557 345.884,289.223 349,292.5C 350.383,295.688 350.549,298.854 349.5,302C 351.788,304.743 353.955,307.577 356,310.5C 357.145,314.964 359.145,318.964 362,322.5C 362.595,323.899 362.428,325.232 361.5,326.5C 364.59,328.951 367.757,328.951 371,326.5C 371.167,326.833 371.333,327.167 371.5,327.5C 368.76,330.565 366.093,333.565 363.5,336.5 Z"/></g>
<g><path style="opacity:0.988" fill="#480202" d="M 217.5,217.5 C 230.171,217.333 242.838,217.5 255.5,218C 254.234,218.309 253.067,218.809 252,219.5C 251.667,219.167 251.333,218.833 251,218.5C 250.252,220.332 249.252,221.999 248,223.5C 246.836,223.835 245.503,223.835 244,223.5C 243.031,226.955 241.031,229.622 238,231.5C 236.318,237.774 232.985,243.107 228,247.5C 225.667,252.167 223.333,256.833 221,261.5C 219.333,263.5 217.667,265.5 216,267.5C 215.316,268.784 215.483,269.951 216.5,271C 215.747,272.487 214.914,272.654 214,271.5C 211.26,272.282 208.426,272.782 205.5,273C 207.44,274.207 209.273,274.374 211,273.5C 213.158,274.05 213.658,275.05 212.5,276.5C 209.663,276.565 206.83,276.565 204,276.5C 203.25,277.126 202.416,277.626 201.5,278C 201.833,278.333 202.167,278.667 202.5,279C 201.256,279.456 200.423,278.956 200,277.5C 199.48,279.289 199.813,280.956 201,282.5C 202.016,281.366 202.683,281.699 203,283.5C 203.667,282.167 204.333,282.167 205,283.5C 206.226,286.952 207.726,290.285 209.5,293.5C 209.167,294.167 208.833,294.833 208.5,295.5C 210.98,296.415 211.647,297.915 210.5,300C 211.577,300.47 212.577,300.303 213.5,299.5C 215.377,302.592 216.711,305.925 217.5,309.5C 216.778,309.918 216.278,310.584 216,311.5C 215.028,309.695 213.861,308.028 212.5,306.5C 211.914,306.709 211.414,307.043 211,307.5C 208.981,305.128 207.314,302.461 206,299.5C 201.398,303.719 198.065,308.719 196,314.5C 192.428,317.055 190.095,320.388 189,324.5C 185.649,328.37 183.482,332.87 182.5,338C 184.374,341.642 185.874,345.475 187,349.5C 187.72,351.112 187.554,352.612 186.5,354C 188.563,356.541 189.897,359.375 190.5,362.5C 189.5,362.5 188.5,362.5 187.5,362.5C 187.51,358.497 185.843,355.497 182.5,353.5C 179.469,346.817 176.469,340.15 173.5,333.5C 174.289,333.217 174.956,332.717 175.5,332C 174.167,331 174.167,330 175.5,329C 172.719,327.279 171.052,324.779 170.5,321.5C 171.826,321.795 173.159,321.295 174.5,320C 173.833,318.333 173.167,316.667 172.5,315C 174.926,307.987 178.759,301.82 184,296.5C 186.205,290.976 189.205,285.976 193,281.5C 195.473,272.327 200.473,264.66 208,258.5C 208.495,251.179 211.828,245.513 218,241.5C 218.413,238.768 219.08,236.101 220,233.5C 222.888,230.62 225.721,227.62 228.5,224.5C 230.085,222.913 231.752,222.08 233.5,222C 232.944,221.617 232.611,221.117 232.5,220.5C 231.828,219.733 230.995,219.066 230,218.5C 226.125,218.459 222.125,218.792 218,219.5C 217.536,218.906 217.369,218.239 217.5,217.5 Z"/></g>
<g><path style="opacity:0.141" fill="#7e1715" d="M 301.5,283.5 C 302.973,284.072 304.307,284.905 305.5,286C 305.799,287.073 305.799,288.24 305.5,289.5C 305.5,290.167 305.167,290.5 304.5,290.5C 302.759,288.605 301.759,286.272 301.5,283.5 Z"/></g>
<g><path style="opacity:0.035" fill="#230605" d="M 212.5,276.5 C 212.81,277.738 213.31,277.738 214,276.5C 214.464,277.094 214.631,277.761 214.5,278.5C 211.5,278.5 208.5,278.5 205.5,278.5C 208.014,285.551 210.68,292.551 213.5,299.5C 212.577,300.303 211.577,300.47 210.5,300C 211.647,297.915 210.98,296.415 208.5,295.5C 208.833,294.833 209.167,294.167 209.5,293.5C 207.726,290.285 206.226,286.952 205,283.5C 204.333,282.167 203.667,282.167 203,283.5C 202.683,281.699 202.016,281.366 201,282.5C 199.813,280.956 199.48,279.289 200,277.5C 200.423,278.956 201.256,279.456 202.5,279C 202.167,278.667 201.833,278.333 201.5,278C 202.416,277.626 203.25,277.126 204,276.5C 206.83,276.565 209.663,276.565 212.5,276.5 Z"/></g>
<g><path style="opacity:0.996" fill="#5b0303" d="M 217.5,309.5 C 218.878,312.42 220.545,315.254 222.5,318C 228.825,318.5 235.158,318.666 241.5,318.5C 241.833,319.5 242.5,320.167 243.5,320.5C 244.167,321.167 244.833,321.833 245.5,322.5C 239.697,323.087 234.197,322.42 229,320.5C 226.333,323.167 223.667,323.167 221,320.5C 220.374,322.991 219.541,322.991 218.5,320.5C 216.694,321.859 215.194,321.525 214,319.5C 212.661,322.094 210.494,323.594 207.5,324C 204.843,333.141 200.01,340.975 193,347.5C 192.219,348.729 191.719,350.062 191.5,351.5C 192.152,353.405 192.319,355.405 192,357.5C 192.333,357.167 192.667,356.833 193,356.5C 194.295,358.526 195.795,359.526 197.5,359.5C 195.944,361.701 194.777,361.701 194,359.5C 193.25,360.126 192.416,360.626 191.5,361C 193.594,362.352 195.927,362.852 198.5,362.5C 197.833,363.167 197.167,363.833 196.5,364.5C 196.167,364.5 195.833,364.5 195.5,364.5C 193.972,363.691 192.306,363.024 190.5,362.5C 189.897,359.375 188.563,356.541 186.5,354C 187.554,352.612 187.72,351.112 187,349.5C 185.874,345.475 184.374,341.642 182.5,338C 183.482,332.87 185.649,328.37 189,324.5C 190.095,320.388 192.428,317.055 196,314.5C 198.065,308.719 201.398,303.719 206,299.5C 207.314,302.461 208.981,305.128 211,307.5C 211.414,307.043 211.914,306.709 212.5,306.5C 213.861,308.028 215.028,309.695 216,311.5C 216.278,310.584 216.778,309.918 217.5,309.5 Z"/></g>
<g><path style="opacity:0.02" fill="#852c2b" d="M 369.5,317.5 C 381.135,318.369 393.135,318.702 405.5,318.5C 399.676,319.166 393.676,319.5 387.5,319.5C 381.128,319.496 375.128,318.829 369.5,317.5 Z"/></g>
<g><path style="opacity:1" fill="#690304" d="M 245.5,322.5 C 240.675,323.227 235.175,323.894 229,324.5C 226.708,323.092 224.541,323.259 222.5,325C 226.226,326.043 225.893,326.543 221.5,326.5C 221.643,328.262 221.309,329.929 220.5,331.5C 218.807,332.228 217.307,333.228 216,334.5C 215.872,337.514 215.872,340.514 216,343.5C 213.867,344.418 211.7,344.584 209.5,344C 208.002,346.482 206.502,348.982 205,351.5C 204.514,355.376 206.181,358.043 210,359.5C 211.722,359.389 211.888,358.889 210.5,358C 211.825,358.148 212.992,357.982 214,357.5C 218.901,342.239 228.901,333.239 244,330.5C 246.892,333.279 250.392,334.945 254.5,335.5C 257.971,338.14 260.971,341.306 263.5,345C 262.849,346.308 263.515,347.141 265.5,347.5C 267.509,349.378 267.842,351.544 266.5,354C 268.709,354.957 268.543,356.124 266,357.5C 265.79,355.942 265.29,354.609 264.5,353.5C 264.34,351.847 263.674,350.514 262.5,349.5C 254.47,336.301 243.803,333.468 230.5,341C 228.21,342.777 226.543,344.944 225.5,347.5C 225.167,347.5 224.833,347.5 224.5,347.5C 223.685,348.429 222.852,349.429 222,350.5C 221.667,350.167 221.333,349.833 221,349.5C 220.61,352.449 219.11,354.616 216.5,356C 219.405,359.549 218.739,361.049 214.5,360.5C 213.833,361.5 213.167,362.5 212.5,363.5C 207.571,363.669 202.905,363.335 198.5,362.5C 195.927,362.852 193.594,362.352 191.5,361C 192.416,360.626 193.25,360.126 194,359.5C 194.777,361.701 195.944,361.701 197.5,359.5C 195.795,359.526 194.295,358.526 193,356.5C 192.667,356.833 192.333,357.167 192,357.5C 192.319,355.405 192.152,353.405 191.5,351.5C 191.719,350.062 192.219,348.729 193,347.5C 200.01,340.975 204.843,333.141 207.5,324C 210.494,323.594 212.661,322.094 214,319.5C 215.194,321.525 216.694,321.859 218.5,320.5C 219.541,322.991 220.374,322.991 221,320.5C 223.667,323.167 226.333,323.167 229,320.5C 234.197,322.42 239.697,323.087 245.5,322.5 Z M 262.5,349.5 C 262.5,350.167 262.167,350.5 261.5,350.5C 261.167,349.5 260.5,348.833 259.5,348.5C 258.92,346.251 257.587,344.585 255.5,343.5C 244.479,337.335 234.479,338.668 225.5,347.5C 226.543,344.944 228.21,342.777 230.5,341C 243.803,333.468 254.47,336.301 262.5,349.5 Z"/></g>
<g><path style="opacity:1" fill="#f50101" d="M 421.5,139.5 C 423.678,161.687 422.512,183.687 418,205.5C 417.207,209.295 415.207,212.295 412,214.5C 406.076,235.032 393.576,250.032 374.5,259.5C 374.175,261.132 373.175,262.132 371.5,262.5C 362.348,265.07 353.014,266.57 343.5,267C 341.604,268.808 341.104,270.975 342,273.5C 343.985,277.173 345.818,280.839 347.5,284.5C 353.537,296.778 359.037,309.444 364,322.5C 364.833,323.333 365.667,324.167 366.5,325C 379.545,325.185 392.545,325.685 405.5,326.5C 408.962,331.32 411.128,336.653 412,342.5C 415.79,346.751 417.956,351.751 418.5,357.5C 415.833,357.5 413.167,357.5 410.5,357.5C 405.882,336.3 393.216,327.466 372.5,331C 369.521,332.93 366.521,334.763 363.5,336.5C 366.093,333.565 368.76,330.565 371.5,327.5C 371.333,327.167 371.167,326.833 371,326.5C 367.757,328.951 364.59,328.951 361.5,326.5C 362.428,325.232 362.595,323.899 362,322.5C 359.145,318.964 357.145,314.964 356,310.5C 353.955,307.577 351.788,304.743 349.5,302C 350.549,298.854 350.383,295.688 349,292.5C 345.884,289.223 343.384,285.557 341.5,281.5C 337.296,278.426 333.796,279.092 331,283.5C 329.533,290.596 326.2,296.596 321,301.5C 320.86,305.895 321.36,310.229 322.5,314.5C 318.977,309.437 317.144,303.77 317,297.5C 324.596,285.969 331.929,274.302 339,262.5C 341.836,253.978 346.502,246.645 353,240.5C 355.746,233.914 359.413,227.914 364,222.5C 367.887,212.397 373.553,203.397 381,195.5C 392.179,173.786 404.846,153.119 419,133.5C 419.566,135.723 420.4,137.723 421.5,139.5 Z"/></g>
<g><path style="opacity:1" fill="#fc0000" d="M 417.5,144.5 C 419.354,151.083 420.687,157.916 421.5,165C 419.491,174.732 418.324,184.566 418,194.5C 415.218,198.703 413.884,203.37 414,208.5C 410.261,215.259 406.928,222.259 404,229.5C 401.227,233.642 398.06,237.476 394.5,241C 393.552,241.483 392.552,241.649 391.5,241.5C 390.909,244.614 389.242,247.114 386.5,249C 383.328,250.752 380.328,252.752 377.5,255C 370.818,257.117 364.151,259.45 357.5,262C 353.789,262.825 350.122,262.659 346.5,261.5C 347.605,260.108 348.939,258.941 350.5,258C 349.446,256.612 349.28,255.112 350,253.5C 355.085,247.003 359.418,240.003 363,232.5C 367.607,227.624 370.941,221.957 373,215.5C 378.075,207.693 383.409,200.026 389,192.5C 398.223,176.328 407.723,160.328 417.5,144.5 Z"/></g>
<g><path style="opacity:0.296" fill="#cb1917" d="M 363.5,306.5 C 365.215,309.593 366.548,312.926 367.5,316.5C 367.957,317.298 368.624,317.631 369.5,317.5C 375.128,318.829 381.128,319.496 387.5,319.5C 393.676,319.5 399.676,319.166 405.5,318.5C 407.308,318.491 408.975,318.991 410.5,320C 411.542,321.918 412.708,323.751 414,325.5C 417.164,335.805 420.997,345.805 425.5,355.5C 424.178,355.33 423.011,355.663 422,356.5C 420.73,352.638 418.73,349.304 416,346.5C 413.627,341.833 412.294,336.833 412,331.5C 410.627,328.588 409.127,325.754 407.5,323C 393.562,321.816 379.562,320.982 365.5,320.5C 365.5,319.5 365.5,318.5 365.5,317.5C 364.5,317.5 363.5,317.5 362.5,317.5C 362.701,314.272 362.367,311.105 361.5,308C 361.836,306.97 362.503,306.47 363.5,306.5 Z"/></g>
<g><path style="opacity:0.99" fill="#780102" d="M 243.5,320.5 C 249.29,320.096 254.956,320.596 260.5,322C 258.699,322.317 258.366,322.984 259.5,324C 256.905,324.226 254.405,324.726 252,325.5C 250.442,324.655 249.442,325.321 249,327.5C 249.825,330.882 251.992,333.382 255.5,335C 255.272,335.399 254.938,335.565 254.5,335.5C 250.392,334.945 246.892,333.279 244,330.5C 228.901,333.239 218.901,342.239 214,357.5C 212.992,357.982 211.825,358.148 210.5,358C 211.888,358.889 211.722,359.389 210,359.5C 206.181,358.043 204.514,355.376 205,351.5C 206.502,348.982 208.002,346.482 209.5,344C 211.7,344.584 213.867,344.418 216,343.5C 215.872,340.514 215.872,337.514 216,334.5C 217.307,333.228 218.807,332.228 220.5,331.5C 221.309,329.929 221.643,328.262 221.5,326.5C 225.893,326.543 226.226,326.043 222.5,325C 224.541,323.259 226.708,323.092 229,324.5C 235.175,323.894 240.675,323.227 245.5,322.5C 244.833,321.833 244.167,321.167 243.5,320.5 Z"/></g>
<g><path style="opacity:1" fill="#a30607" d="M 241.5,318.5 C 251.833,318.5 262.167,318.5 272.5,318.5C 278.014,319.167 283.681,319.833 289.5,320.5C 289.863,321.183 290.196,321.85 290.5,322.5C 286.156,322.402 281.989,322.069 278,321.5C 276.004,321.996 274.337,322.996 273,324.5C 272.667,324.167 272.333,323.833 272,323.5C 268.589,324.293 265.089,324.793 261.5,325C 263.5,325.333 265.5,325.667 267.5,326C 259.239,326.242 256.739,330.075 260,337.5C 263.799,340.116 265.632,343.449 265.5,347.5C 263.515,347.141 262.849,346.308 263.5,345C 260.971,341.306 257.971,338.14 254.5,335.5C 254.938,335.565 255.272,335.399 255.5,335C 251.992,333.382 249.825,330.882 249,327.5C 249.442,325.321 250.442,324.655 252,325.5C 254.405,324.726 256.905,324.226 259.5,324C 258.366,322.984 258.699,322.317 260.5,322C 254.956,320.596 249.29,320.096 243.5,320.5C 242.5,320.167 241.833,319.5 241.5,318.5 Z"/></g>
<g><path style="opacity:1" fill="#fa0000" d="M 362.5,382.5 C 360.615,372.975 361.615,363.642 365.5,354.5C 367.701,351.979 370.034,349.479 372.5,347C 382.956,343.421 391.456,345.921 398,354.5C 401.37,364.193 402.37,374.193 401,384.5C 398.751,392.21 394.251,398.043 387.5,402C 379.464,404.193 372.964,402.027 368,395.5C 366.041,391.096 364.208,386.762 362.5,382.5 Z"/></g>
<g><path style="opacity:1" fill="#fa0000" d="M 254.5,349.5 C 257.242,352.389 259.408,355.722 261,359.5C 261.667,367.5 261.667,375.5 261,383.5C 259.628,386.726 258.461,390.059 257.5,393.5C 255.364,394.472 254.197,396.139 254,398.5C 247.446,403.103 240.612,403.603 233.5,400C 226.217,394.267 222.55,386.767 222.5,377.5C 222.907,369.647 224.24,361.981 226.5,354.5C 229.966,345.378 236.633,341.545 246.5,343C 248.5,344 250.5,345 252.5,346C 253.823,346.816 254.489,347.983 254.5,349.5 Z"/></g>
<g><path style="opacity:0.161" fill="#af1a17" d="M 313.5,325.5 C 317.629,335.877 321.962,346.211 326.5,356.5C 324.418,356.376 322.918,355.376 322,353.5C 319.902,346.632 317.235,339.966 314,333.5C 313.503,330.854 313.336,328.187 313.5,325.5 Z"/></g>
<g><path style="opacity:0.161" fill="#c91716" d="M 312.5,308.5 C 313.609,308.557 314.609,308.89 315.5,309.5C 317.255,312.848 318.922,316.348 320.5,320C 321.704,321.699 323.038,323.199 324.5,324.5C 324.557,325.609 324.89,326.609 325.5,327.5C 327.546,339.817 332.213,350.984 339.5,361C 343.833,361.667 348.167,361.667 352.5,361C 355.877,356.623 358.377,351.789 360,346.5C 368.811,333.994 380.644,330.161 395.5,335C 397.895,337.64 400.395,340.14 403,342.5C 405.065,349.137 407.565,355.637 410.5,362C 414.167,362.667 417.833,362.667 421.5,362C 422.227,360.601 422.727,359.101 423,357.5C 423.671,356.748 424.504,356.414 425.5,356.5C 425.821,357.817 426.154,359.151 426.5,360.5C 426.547,362.038 425.88,363.038 424.5,363.5C 419.5,363.5 414.5,363.5 409.5,363.5C 406.746,361.671 405.246,359.005 405,355.5C 404.308,356.025 403.808,356.692 403.5,357.5C 404.519,359.604 405.519,361.604 406.5,363.5C 404.755,366.403 403.755,366.07 403.5,362.5C 402.472,359.594 402.472,356.761 403.5,354C 402.256,353.544 401.423,354.044 401,355.5C 393.756,344.249 383.922,341.083 371.5,346C 368.619,348.279 366.619,351.112 365.5,354.5C 361.615,363.642 360.615,372.975 362.5,382.5C 361.542,389.219 363.542,394.719 368.5,399C 367.041,398.645 365.707,398.811 364.5,399.5C 357.324,389.792 354.657,378.792 356.5,366.5C 357.67,364.35 358.67,362.016 359.5,359.5C 358.14,357.019 357.14,357.352 356.5,360.5C 356.709,361.086 357.043,361.586 357.5,362C 356.584,362.278 355.918,362.778 355.5,363.5C 349.582,364.621 343.582,364.788 337.5,364C 336.069,363.535 334.903,362.701 334,361.5C 327.284,345.065 320.284,328.732 313,312.5C 312.51,311.207 312.343,309.873 312.5,308.5 Z M 391.5,340.5 C 394.712,340.712 396.712,342.379 397.5,345.5C 395.091,344.299 393.091,342.633 391.5,340.5 Z M 391.5,340.5 C 379.524,337.192 370.024,340.525 363,350.5C 365.45,343.725 370.283,339.225 377.5,337C 382.899,335.745 387.566,336.911 391.5,340.5 Z"/></g>
<g><path style="opacity:0.198" fill="#350f0a" d="M 224.5,347.5 C 224.5,348.167 224.833,348.5 225.5,348.5C 222.752,351.33 221.085,354.663 220.5,358.5C 219.167,358.833 219.167,359.167 220.5,359.5C 219.64,361.288 218.64,362.955 217.5,364.5C 210.724,364.364 203.724,364.364 196.5,364.5C 197.167,363.833 197.833,363.167 198.5,362.5C 202.905,363.335 207.571,363.669 212.5,363.5C 213.167,362.5 213.833,361.5 214.5,360.5C 218.739,361.049 219.405,359.549 216.5,356C 219.11,354.616 220.61,352.449 221,349.5C 221.333,349.833 221.667,350.167 222,350.5C 222.852,349.429 223.685,348.429 224.5,347.5 Z"/></g>
<g><path style="opacity:0.955" fill="#e60b0b" d="M 347.5,284.5 C 349.751,287.32 352.085,290.154 354.5,293C 355.094,293.464 355.761,293.631 356.5,293.5C 359.274,297.581 361.607,301.914 363.5,306.5C 362.503,306.47 361.836,306.97 361.5,308C 362.367,311.105 362.701,314.272 362.5,317.5C 363.5,317.5 364.5,317.5 365.5,317.5C 365.5,318.5 365.5,319.5 365.5,320.5C 379.562,320.982 393.562,321.816 407.5,323C 409.127,325.754 410.627,328.588 412,331.5C 412.294,336.833 413.627,341.833 416,346.5C 418.73,349.304 420.73,352.638 422,356.5C 423.011,355.663 424.178,355.33 425.5,355.5C 425.5,355.833 425.5,356.167 425.5,356.5C 424.504,356.414 423.671,356.748 423,357.5C 422.727,359.101 422.227,360.601 421.5,362C 417.833,362.667 414.167,362.667 410.5,362C 407.565,355.637 405.065,349.137 403,342.5C 400.395,340.14 397.895,337.64 395.5,335C 380.644,330.161 368.811,333.994 360,346.5C 358.377,351.789 355.877,356.623 352.5,361C 348.167,361.667 343.833,361.667 339.5,361C 332.213,350.984 327.546,339.817 325.5,327.5C 328.02,330.531 330.186,333.864 332,337.5C 334.516,344.283 337.016,350.95 339.5,357.5C 343.514,357.666 347.514,357.499 351.5,357C 354.476,349.579 358.476,342.746 363.5,336.5C 366.521,334.763 369.521,332.93 372.5,331C 393.216,327.466 405.882,336.3 410.5,357.5C 413.167,357.5 415.833,357.5 418.5,357.5C 417.956,351.751 415.79,346.751 412,342.5C 411.128,336.653 408.962,331.32 405.5,326.5C 392.545,325.685 379.545,325.185 366.5,325C 365.667,324.167 364.833,323.333 364,322.5C 359.037,309.444 353.537,296.778 347.5,284.5 Z M 391.5,340.5 C 394.712,340.712 396.712,342.379 397.5,345.5C 395.091,344.299 393.091,342.633 391.5,340.5 Z M 391.5,340.5 C 387.566,336.911 382.899,335.745 377.5,337C 370.283,339.225 365.45,343.725 363,350.5C 370.024,340.525 379.524,337.192 391.5,340.5 Z"/></g>
<g><path style="opacity:0.02" fill="#571b19" d="M 326.5,357.5 C 328.089,360.311 327.423,362.311 324.5,363.5C 325.048,361.374 325.715,359.374 326.5,357.5 Z"/></g>
<g><path style="opacity:0.012" fill="#521312" d="M 356.5,366.5 C 356.737,365.209 356.404,364.209 355.5,363.5C 355.918,362.778 356.584,362.278 357.5,362C 357.043,361.586 356.709,361.086 356.5,360.5C 357.14,357.352 358.14,357.019 359.5,359.5C 358.67,362.016 357.67,364.35 356.5,366.5 Z"/></g>
<g><path style="opacity:0.02" fill="#812223" d="M 409.5,363.5 C 408.833,363.5 408.167,363.5 407.5,363.5C 407.167,363.5 406.833,363.5 406.5,363.5C 405.519,361.604 404.519,359.604 403.5,357.5C 403.808,356.692 404.308,356.025 405,355.5C 405.246,359.005 406.746,361.671 409.5,363.5 Z"/></g>
<g><path style="opacity:0.646" fill="#d00d0d" d="M 272.5,318.5 C 285.228,318.08 297.894,318.58 310.5,320C 311.971,321.583 312.971,323.417 313.5,325.5C 313.336,328.187 313.503,330.854 314,333.5C 317.235,339.966 319.902,346.632 322,353.5C 322.918,355.376 324.418,356.376 326.5,356.5C 326.5,356.833 326.5,357.167 326.5,357.5C 325.715,359.374 325.048,361.374 324.5,363.5C 306.671,364.662 288.671,364.829 270.5,364C 269.944,363.617 269.611,363.117 269.5,362.5C 268.602,361.842 267.602,361.176 266.5,360.5C 267.687,360.446 269.02,360.113 270.5,359.5C 270.424,356.613 270.424,353.78 270.5,351C 267.725,346.994 266.892,342.494 268,337.5C 270.53,334.937 272.697,332.103 274.5,329C 278.686,325.896 283.186,324.73 288,325.5C 288.903,324.299 290.069,323.465 291.5,323C 291.272,322.601 290.938,322.435 290.5,322.5C 290.196,321.85 289.863,321.183 289.5,320.5C 283.681,319.833 278.014,319.167 272.5,318.5 Z"/></g>
<g><path style="opacity:1" fill="#f20101" d="M 302.5,323.5 C 305.149,323.793 307.815,324.793 310.5,326.5C 311.354,331.22 312.521,335.886 314,340.5C 316.878,345.76 319.378,351.26 321.5,357C 321.355,357.772 321.022,358.439 320.5,359C 313.667,359.167 306.833,359.333 300,359.5C 292.666,359.464 285.499,358.797 278.5,357.5C 276.012,358.412 274.345,357.412 273.5,354.5C 277.628,345.067 282.628,336.233 288.5,328C 289.833,327.667 291.167,327.333 292.5,327C 291.833,326.667 291.167,326.333 290.5,326C 292.764,325.764 294.931,325.264 297,324.5C 297.333,324.833 297.667,325.167 298,325.5C 299.622,324.901 301.122,324.234 302.5,323.5 Z"/></g>
<g><path style="opacity:0.009" fill="#1b0503" d="M 182.5,353.5 C 185.843,355.497 187.51,358.497 187.5,362.5C 188.5,362.5 189.5,362.5 190.5,362.5C 192.306,363.024 193.972,363.691 195.5,364.5C 187.616,365.089 183.283,361.423 182.5,353.5 Z"/></g>
<g><path style="opacity:0.02" fill="#6f2321" d="M 409.5,363.5 C 414.5,363.5 419.5,363.5 424.5,363.5C 423.504,364.665 422.171,365.332 420.5,365.5C 416.669,364.973 413.002,364.306 409.5,363.5 Z"/></g>
<g><path style="opacity:0.31" fill="#c51211" d="M 290.5,322.5 C 290.938,322.435 291.272,322.601 291.5,323C 290.069,323.465 288.903,324.299 288,325.5C 283.186,324.73 278.686,325.896 274.5,329C 272.697,332.103 270.53,334.937 268,337.5C 266.892,342.494 267.725,346.994 270.5,351C 270.424,353.78 270.424,356.613 270.5,359.5C 269.02,360.113 267.687,360.446 266.5,360.5C 267.602,361.176 268.602,361.842 269.5,362.5C 268.414,362.62 267.747,363.287 267.5,364.5C 268.709,372.161 268.709,379.827 267.5,387.5C 265.259,388.3 264.259,389.966 264.5,392.5C 264.771,394.38 264.104,395.713 262.5,396.5C 261.624,396.631 260.957,396.298 260.5,395.5C 261.531,394.3 262.365,392.966 263,391.5C 263.663,386.065 264.496,380.732 265.5,375.5C 264.976,369.076 263.976,362.743 262.5,356.5C 261.5,356.5 260.5,356.5 259.5,356.5C 259.787,352.785 258.12,350.452 254.5,349.5C 254.489,347.983 253.823,346.816 252.5,346C 250.5,345 248.5,344 246.5,343C 236.633,341.545 229.966,345.378 226.5,354.5C 224.205,355.475 222.205,356.808 220.5,358.5C 221.085,354.663 222.752,351.33 225.5,348.5C 225.5,348.167 225.5,347.833 225.5,347.5C 234.479,338.668 244.479,337.335 255.5,343.5C 256.08,345.749 257.413,347.415 259.5,348.5C 260.5,348.833 261.167,349.5 261.5,350.5C 262.167,351.833 263.167,352.833 264.5,353.5C 265.29,354.609 265.79,355.942 266,357.5C 268.543,356.124 268.709,354.957 266.5,354C 267.842,351.544 267.509,349.378 265.5,347.5C 265.632,343.449 263.799,340.116 260,337.5C 256.739,330.075 259.239,326.242 267.5,326C 265.5,325.667 263.5,325.333 261.5,325C 265.089,324.793 268.589,324.293 272,323.5C 272.333,323.833 272.667,324.167 273,324.5C 274.337,322.996 276.004,321.996 278,321.5C 281.989,322.069 286.156,322.402 290.5,322.5 Z"/></g>
<g><path style="opacity:0.004" fill="#000000" d="M 262.5,349.5 C 263.674,350.514 264.34,351.847 264.5,353.5C 263.167,352.833 262.167,351.833 261.5,350.5C 262.167,350.5 262.5,350.167 262.5,349.5 Z"/></g>
<g><path style="opacity:0.027" fill="#5a1f1c" d="M 255.5,343.5 C 257.587,344.585 258.92,346.251 259.5,348.5C 257.413,347.415 256.08,345.749 255.5,343.5 Z"/></g>
<g><path style="opacity:0.157" fill="#b91a17" d="M 220.5,359.5 C 220.611,366.644 220.778,373.977 221,381.5C 222.425,386.842 224.258,392.009 226.5,397C 225.584,397.278 224.918,397.778 224.5,398.5C 223.196,397.013 222.03,395.346 221,393.5C 219.419,388.627 217.919,383.793 216.5,379C 217.403,374.302 217.737,369.469 217.5,364.5C 218.64,362.955 219.64,361.288 220.5,359.5 Z"/></g>
<g><path style="opacity:0.388" fill="#c71917" d="M 407.5,365.5 C 407.5,371.833 407.5,378.167 407.5,384.5C 405.952,384.821 405.285,385.821 405.5,387.5C 404.976,392.885 402.643,397.218 398.5,400.5C 397.059,396.021 398.726,392.854 403.5,391C 402.903,389.938 402.57,388.772 402.5,387.5C 404.041,380.94 404.874,374.274 405,367.5C 405.708,366.619 406.542,365.953 407.5,365.5 Z"/></g>
<g><path style="opacity:0.012" fill="#41120e" d="M 407.5,384.5 C 407.068,385.71 406.401,386.71 405.5,387.5C 405.285,385.821 405.952,384.821 407.5,384.5 Z"/></g>
<g><path style="opacity:0.012" fill="#46120f" d="M 267.5,387.5 C 266.737,389.368 265.737,391.035 264.5,392.5C 264.259,389.966 265.259,388.3 267.5,387.5 Z"/></g>
<g><path style="opacity:0.902" fill="#e20e0e" d="M 406.5,363.5 C 406.833,363.5 407.167,363.5 407.5,363.5C 407.5,364.167 407.5,364.833 407.5,365.5C 406.542,365.953 405.708,366.619 405,367.5C 404.874,374.274 404.041,380.94 402.5,387.5C 402.57,388.772 402.903,389.938 403.5,391C 398.726,392.854 397.059,396.021 398.5,400.5C 397.833,401.833 396.833,402.833 395.5,403.5C 390.996,404.084 386.496,404.75 382,405.5C 376.95,404.563 372.117,402.896 367.5,400.5C 366.893,400.624 366.56,400.957 366.5,401.5C 365.5,401.167 364.833,400.5 364.5,399.5C 365.707,398.811 367.041,398.645 368.5,399C 363.542,394.719 361.542,389.219 362.5,382.5C 364.208,386.762 366.041,391.096 368,395.5C 372.964,402.027 379.464,404.193 387.5,402C 394.251,398.043 398.751,392.21 401,384.5C 402.37,374.193 401.37,364.193 398,354.5C 391.456,345.921 382.956,343.421 372.5,347C 370.034,349.479 367.701,351.979 365.5,354.5C 366.619,351.112 368.619,348.279 371.5,346C 383.922,341.083 393.756,344.249 401,355.5C 401.423,354.044 402.256,353.544 403.5,354C 402.472,356.761 402.472,359.594 403.5,362.5C 403.755,366.07 404.755,366.403 406.5,363.5 Z"/></g>
<g><path style="opacity:0.664" fill="#e20e0e" d="M 254.5,349.5 C 258.12,350.452 259.787,352.785 259.5,356.5C 260.5,356.5 261.5,356.5 262.5,356.5C 263.976,362.743 264.976,369.076 265.5,375.5C 264.496,380.732 263.663,386.065 263,391.5C 262.365,392.966 261.531,394.3 260.5,395.5C 260.957,396.298 261.624,396.631 262.5,396.5C 262.5,397.167 262.167,397.5 261.5,397.5C 260.25,397.423 259.417,396.756 259,395.5C 249.815,407.689 239.482,408.689 228,398.5C 227.517,399.448 227.351,400.448 227.5,401.5C 226.167,400.833 225.167,399.833 224.5,398.5C 224.918,397.778 225.584,397.278 226.5,397C 224.258,392.009 222.425,386.842 221,381.5C 220.778,373.977 220.611,366.644 220.5,359.5C 219.167,359.167 219.167,358.833 220.5,358.5C 222.205,356.808 224.205,355.475 226.5,354.5C 224.24,361.981 222.907,369.647 222.5,377.5C 222.55,386.767 226.217,394.267 233.5,400C 240.612,403.603 247.446,403.103 254,398.5C 254.197,396.139 255.364,394.472 257.5,393.5C 258.461,390.059 259.628,386.726 261,383.5C 261.667,375.5 261.667,367.5 261,359.5C 259.408,355.722 257.242,352.389 254.5,349.5 Z"/></g>
<g><path style="opacity:0.318" fill="#c41a18" d="M 395.5,403.5 C 393.747,405.223 391.747,406.723 389.5,408C 384.5,408.667 379.5,408.667 374.5,408C 371.213,406.533 368.546,404.366 366.5,401.5C 366.56,400.957 366.893,400.624 367.5,400.5C 372.117,402.896 376.95,404.563 382,405.5C 386.496,404.75 390.996,404.084 395.5,403.5 Z"/></g>
<g><path style="opacity:0.157" fill="#c41716" d="M 261.5,397.5 C 254.837,408.524 245.504,411.691 233.5,407C 231.004,405.669 229.004,403.836 227.5,401.5C 227.351,400.448 227.517,399.448 228,398.5C 239.482,408.689 249.815,407.689 259,395.5C 259.417,396.756 260.25,397.423 261.5,397.5 Z"/></g>
</svg>
